<svg width="6" height="12" viewBox="0 0 6 12" fill="none" xmlns="http://www.w3.org/2000/svg">
<path id="Vector" d="M5.8525 5.62617L0.903386 0.142609C0.820808 0.051067 0.711097 7.93141e-08 0.597008 8.10281e-08C0.48292 8.27422e-08 0.373209 0.0510671 0.290631 0.142609L0.285302 0.148805C0.245131 0.193183 0.213144 0.2466 0.191286 0.305807C0.169427 0.365014 0.158155 0.428773 0.158155 0.493206C0.158155 0.557638 0.169427 0.621397 0.191286 0.680604C0.213144 0.739811 0.245131 0.793228 0.285302 0.837606L4.9458 6.00103L0.285302 11.1624C0.245131 11.2068 0.213144 11.2602 0.191286 11.3194C0.169428 11.3786 0.158156 11.4424 0.158156 11.5068C0.158156 11.5712 0.169428 11.635 0.191286 11.6942C0.213144 11.7534 0.245131 11.8068 0.285302 11.8512L0.290631 11.8574C0.37321 11.9489 0.48292 12 0.597008 12C0.711097 12 0.820808 11.9489 0.903386 11.8574L5.8525 6.37383C5.89602 6.32561 5.93067 6.26761 5.95435 6.20335C5.97803 6.13909 5.99023 6.06991 5.99023 6C5.99023 5.93009 5.97803 5.86091 5.95435 5.79665C5.93067 5.73239 5.89602 5.67439 5.8525 5.62617Z" fill="#2800DF"/>
</svg>
