<svg width="7" height="12" viewBox="0 0 7 12" fill="none" xmlns="http://www.w3.org/2000/svg">
<path id="Vector" d="M0.337932 6.37383L5.28704 11.8574C5.36962 11.9489 5.47933 12 5.59342 12C5.70751 12 5.81722 11.9489 5.8998 11.8574L5.90513 11.8512C5.9453 11.8068 5.97729 11.7534 5.99914 11.6942C6.021 11.635 6.03227 11.5712 6.03227 11.5068C6.03227 11.4424 6.021 11.3786 5.99914 11.3194C5.97729 11.2602 5.9453 11.2068 5.90513 11.1624L1.24463 5.99897L5.90513 0.837607C5.9453 0.79323 5.97729 0.739813 5.99914 0.680606C6.021 0.621399 6.03227 0.55764 6.03227 0.493207C6.03227 0.428775 6.021 0.365016 5.99914 0.305809C5.97729 0.246602 5.9453 0.193185 5.90513 0.148807L5.8998 0.142611C5.81722 0.0510683 5.70751 9.87763e-07 5.59342 9.87057e-07C5.47933 9.86351e-07 5.36962 0.0510683 5.28704 0.142611L0.337932 5.62617C0.294407 5.67439 0.259756 5.73239 0.23608 5.79665C0.212404 5.86091 0.200195 5.93009 0.200195 6C0.200195 6.06991 0.212404 6.13909 0.23608 6.20335C0.259756 6.26761 0.294407 6.32561 0.337932 6.37383Z" fill="#2800DF"/>
</svg>
