<svg width="17" height="17" viewBox="0 0 17 17" fill="none" xmlns="http://www.w3.org/2000/svg">
    <path id="Vector" d="M6.80418 1.70017C5.45074 1.70017 4.15274 2.23785 3.19572 3.19493C2.2387 4.15201 1.70105 5.45008 1.70105 6.8036C1.70105 8.15711 2.2387 9.45519 3.19572 10.4123C4.15274 11.3693 5.45074 11.907 6.80418 11.907C8.15762 11.907 9.45562 11.3693 10.4126 10.4123C11.3697 9.45519 11.9073 8.15711 11.9073 6.8036C11.9073 5.45008 11.3697 4.15201 10.4126 3.19493C9.45562 2.23785 8.15762 1.70017 6.80418 1.70017ZM4.20296e-08 6.8036C0.000155072 5.7207 0.258744 4.65348 0.754277 3.69063C1.24981 2.72777 1.96797 1.8971 2.84908 1.26764C3.7302 0.638181 4.7488 0.228114 5.82026 0.0715213C6.89171 -0.0850715 7.98506 0.0163317 9.00945 0.367304C10.0338 0.718275 10.9597 1.30868 11.71 2.08945C12.4603 2.87022 13.0135 3.8188 13.3235 4.85636C13.6335 5.89393 13.6915 6.99051 13.4925 8.05496C13.2935 9.11942 12.8434 10.121 12.1795 10.9765L16.7612 15.5585C16.9162 15.7189 17.0019 15.9338 17 16.1568C16.998 16.3798 16.9086 16.5932 16.7509 16.7509C16.5932 16.9086 16.3799 16.998 16.1569 17C15.9339 17.0019 15.719 16.9162 15.5586 16.7612L10.9768 12.1792C9.97107 12.9601 8.76636 13.4431 7.49971 13.5733C6.23306 13.7034 4.95531 13.4756 3.81174 12.9155C2.66818 12.3555 1.70469 11.4858 1.03085 10.4053C0.357015 9.32487 -0.000141459 8.07699 4.20296e-08 6.8036Z" fill="#ABABAD"/>
</svg>
