<svg width="25" height="29" viewBox="0 0 25 29" fill="none" xmlns="http://www.w3.org/2000/svg">
<path id="Vector" d="M12.9157 4.93852V0.752488C12.9157 0.0773208 13.7387 -0.252761 14.2112 0.227358L20.0028 5.91377C20.3076 6.21384 20.3076 6.67896 20.0028 6.97903L14.2264 12.6654C13.7387 13.1306 12.9157 12.8005 12.9157 12.1253V7.93927C7.2307 7.93927 2.73455 13.0705 3.98432 18.877C4.70066 22.2828 7.50504 25.0285 10.9495 25.7337C16.3907 26.859 21.2373 23.183 21.9689 18.2168C22.0233 17.8642 22.2034 17.5421 22.4772 17.3084C22.7509 17.0747 23.1002 16.9446 23.4626 16.9415C24.377 16.9415 25.1086 17.7367 24.9867 18.6369C24.0417 25.2235 17.6709 30.0998 10.4618 28.7194C5.70658 27.8042 1.88104 24.0383 0.951328 19.3571C-0.55755 11.6602 5.38651 4.93852 12.9157 4.93852Z" fill="black"/>
</svg>
