<svg width="25" height="29" viewBox="0 0 25 29" fill="none" xmlns="http://www.w3.org/2000/svg">
<path id="Vector" d="M12.0843 4.93852V0.752488C12.0843 0.0773208 11.2613 -0.252761 10.7888 0.227358L4.99719 5.91377C4.69236 6.21384 4.69236 6.67896 4.99719 6.97903L10.7736 12.6654C11.2613 13.1306 12.0843 12.8005 12.0843 12.1253V7.93927C17.7693 7.93927 22.2655 13.0705 21.0157 18.877C20.2993 22.2828 17.495 25.0285 14.0505 25.7337C8.60935 26.859 3.76265 23.183 3.03107 18.2168C2.97674 17.8642 2.79655 17.5421 2.52283 17.3084C2.24911 17.0747 1.89976 16.9446 1.53744 16.9415C0.622967 16.9415 -0.10861 17.7367 0.0133192 18.6369C0.958273 25.2235 7.32909 30.0998 14.5382 28.7194C19.2934 27.8042 23.119 24.0383 24.0487 19.3571C25.5576 11.6602 19.6135 4.93852 12.0843 4.93852Z" fill="black"/>
</svg>
