<svg width="26" height="26" viewBox="0 0 26 26" fill="none" xmlns="http://www.w3.org/2000/svg">
<path id="Vector" d="M0 5.2C0 2.7482 -7.7486e-08 1.5236 0.7618 0.7618C1.5236 -7.7486e-08 2.7482 0 5.2 0C7.6518 0 8.8764 -7.7486e-08 9.6382 0.7618C10.4 1.5236 10.4 2.7482 10.4 5.2V20.8C10.4 23.2518 10.4 24.4764 9.6382 25.2382C8.8764 26 7.6518 26 5.2 26C2.7482 26 1.5236 26 0.7618 25.2382C-7.7486e-08 24.4764 0 23.2518 0 20.8V5.2ZM15.6 5.2C15.6 2.7482 15.6 1.5236 16.3618 0.7618C17.1236 -7.7486e-08 18.3482 0 20.8 0C23.2518 0 24.4764 -7.7486e-08 25.2382 0.7618C26 1.5236 26 2.7482 26 5.2V20.8C26 23.2518 26 24.4764 25.2382 25.2382C24.4764 26 23.2518 26 20.8 26C18.3482 26 17.1236 26 16.3618 25.2382C15.6 24.4764 15.6 23.2518 15.6 20.8V5.2Z" fill="black"/>
</svg>
