<svg width="1072" height="573" viewBox="0 0 1072 573" fill="none" xmlns="http://www.w3.org/2000/svg">
<line x1="643" y1="306.5" x2="674" y2="306.5" stroke="#0D42E5"/>
<line x1="196.996" y1="306.5" x2="227.996" y2="306.5" stroke="#0D42E5"/>
<line x1="643" y1="439.5" x2="674" y2="439.5" stroke="#0D42E5"/>
<line x1="196" y1="174.5" x2="228" y2="174.5" stroke="#0D42E5"/>
<line x1="642.004" y1="174.5" x2="674.004" y2="174.5" stroke="#0D42E5"/>
<line x1="196.5" y1="174" x2="196.5" y2="42" stroke="#0D42E5"/>
<line x1="642.5" y1="159" x2="642.5" y2="56" stroke="#0D42E5"/>
<line x1="642.5" y1="543" x2="642.5" y2="455" stroke="#0D42E5"/>
<line x1="642.5" y1="292" x2="642.5" y2="189" stroke="#0D42E5"/>
<line x1="642.5" y1="425" x2="642.5" y2="322" stroke="#0D42E5"/>
<line x1="419.5" y1="145" x2="419.5" y2="57" stroke="#0D42E5"/>
<line x1="196.496" y1="292" x2="196.496" y2="189" stroke="#0D42E5"/>
<circle cx="196" cy="174" r="15" fill="#191919"/>
<path d="M192.36 179V177.623L196.11 174.005C197.179 172.936 197.736 172.306 197.736 171.412C197.736 170.423 196.952 169.801 195.919 169.801C194.828 169.801 194.125 170.482 194.132 171.559H192.316C192.309 169.552 193.817 168.248 195.934 168.248C198.102 168.248 199.56 169.544 199.567 171.324C199.56 172.518 198.988 173.485 196.901 175.455L195.011 177.33V177.403H199.728V179H192.36Z" fill="white"/>
<circle cx="642.004" cy="174" r="15" fill="#191919"/>
<path d="M638.364 179V177.623L642.114 174.005C643.183 172.936 643.74 172.306 643.74 171.412C643.74 170.423 642.956 169.801 641.923 169.801C640.832 169.801 640.129 170.482 640.136 171.559H638.32C638.312 169.552 639.821 168.248 641.938 168.248C644.106 168.248 645.563 169.544 645.571 171.324C645.563 172.518 644.992 173.485 642.905 175.455L641.015 177.33V177.403H645.732V179H638.364Z" fill="white"/>
<g filter="url(#filter0_d_1632_124)">
<rect x="5" y="5" width="160" height="74" rx="10" fill="white" fill-opacity="0.8" shape-rendering="crispEdges"/>
</g>
<path d="M23.0371 53.4844V56.625H24.5605V57.5625H23.0371V61.207H21.9238V53.4844H23.0371ZM14.9512 56.8242C14.9395 55.2949 16.1582 54.2168 17.7402 54.2109C19.3281 54.2168 20.5293 55.2949 20.541 56.8242C20.5293 58.3535 19.3281 59.4434 17.7402 59.4375C16.1582 59.4434 14.9395 58.3535 14.9512 56.8242ZM16.041 56.8242C16.0293 57.8027 16.7793 58.4648 17.7402 58.4648C18.7129 58.4648 19.4453 57.8027 19.4512 56.8242C19.4453 55.8457 18.7129 55.1836 17.7402 55.1836C16.7793 55.1836 16.0293 55.8457 16.041 56.8242ZM16.3809 63.7734V60.3984H17.4941V62.8711H23.4824V63.7734H16.3809ZM26.9043 54.1055V58.3477C28.5977 58.3418 29.8164 58.2598 31.1934 57.9844L31.3223 58.8867C29.8223 59.1914 28.498 59.2734 26.5996 59.2617H25.7793V54.1055H26.9043ZM26.8457 62.0039C26.8398 60.7383 28.1875 59.9941 30.3965 59.9883C32.5938 59.9941 33.9414 60.7383 33.9473 62.0039C33.9414 63.2578 32.5938 63.9902 30.3965 63.9961C28.1875 63.9902 26.8398 63.2578 26.8457 62.0039ZM27.9473 62.0039C27.9414 62.7012 28.8555 63.1055 30.3965 63.1055C31.9258 63.1055 32.8398 62.7012 32.8457 62.0039C32.8398 61.2832 31.9258 60.873 30.3965 60.8672C28.8555 60.873 27.9414 61.2832 27.9473 62.0039ZM29.9395 57.3516V56.4961H32.7988V55.5117H29.9395V54.6445H32.7988V53.4961H33.9121V59.8945H32.7988V57.3516H29.9395ZM43.709 53.4961V57.75H45.3965V58.6758H43.709V63.9961H42.6074V53.4961H43.709ZM35.4707 56.0508V55.1367H38.0605V53.6367H39.1738V55.1367H41.6934V56.0508H35.4707ZM36.0098 59.2617C36.0098 57.832 37.1113 56.8242 38.623 56.8242C40.1289 56.8242 41.2305 57.832 41.2363 59.2617C41.2305 60.7031 40.1289 61.7051 38.623 61.7109C37.1113 61.7051 36.0098 60.7031 36.0098 59.2617ZM37.0762 59.2617C37.0703 60.1758 37.7266 60.7852 38.623 60.7734C39.5137 60.7852 40.1641 60.1758 40.1699 59.2617C40.1641 58.3652 39.5137 57.7441 38.623 57.7383C37.7266 57.7441 37.0703 58.3652 37.0762 59.2617ZM49.0996 56.3672C49.0996 58.043 49.8027 59.8301 51.209 60.6914L50.5879 61.5469C49.6035 60.9551 48.9414 59.9062 48.5781 58.6934C48.1973 60.0234 47.4707 61.1602 46.4512 61.7812L45.7598 60.9492C47.2422 60.0586 48.0273 58.2012 48.0215 56.4141V54.457H49.0996V56.3672ZM50.0723 58.1133V57.1875H51.7012V53.6953H52.7559V63.4805H51.7012V58.1133H50.0723ZM53.8691 63.9961V53.4961H54.9355V63.9961H53.8691ZM65.8809 61.7578V62.6836H56.2715V61.7578H58.5684V59.0156C57.707 58.541 57.1797 57.791 57.1855 56.8477C57.1797 55.1953 58.8027 54.1113 61.0527 54.1055C63.3086 54.1113 64.9316 55.1953 64.9316 56.8477C64.9316 57.7734 64.4277 58.5176 63.584 58.9922V61.7578H65.8809ZM58.2637 56.8477C58.2637 57.9727 59.4062 58.7051 61.0527 58.7109C62.6875 58.7051 63.8477 57.9727 63.8535 56.8477C63.8477 55.7168 62.6875 54.9961 61.0527 54.9961C59.4062 54.9961 58.2637 55.7168 58.2637 56.8477ZM59.6699 61.7578H62.459V59.4258C62.0312 59.5254 61.5566 59.5781 61.0527 59.5781C60.5605 59.5781 60.0918 59.5254 59.6699 59.4258V61.7578ZM67.8379 63.082C67.3809 63.0762 67 62.707 67.0059 62.25C67 61.793 67.3809 61.418 67.8379 61.418C68.2891 61.418 68.6641 61.793 68.6699 62.25C68.6641 62.707 68.2891 63.0762 67.8379 63.082ZM75.4082 54.2812C76.9785 54.2871 78.0977 55.7168 78.1035 57.9609C78.0977 60.2285 76.9785 61.6582 75.4082 61.6523C73.8379 61.6582 72.7188 60.2285 72.7246 57.9609C72.7188 55.7168 73.8379 54.2871 75.4082 54.2812ZM73.791 57.9609C73.7852 59.6309 74.4531 60.6562 75.4082 60.6562C76.3809 60.6562 77.0371 59.6309 77.0371 57.9609C77.0371 56.3145 76.3809 55.2832 75.4082 55.2773C74.4531 55.2832 73.7852 56.3145 73.791 57.9609ZM79.6621 63.9961V53.4961H80.7754V57.6094H82.4629V58.5469H80.7754V63.9961H79.6621ZM87.0332 54.6211V58.3594H84.373V60.5156C85.5156 60.5098 86.6055 60.4629 87.9004 60.2344L87.9941 61.1484C86.5352 61.4121 85.3398 61.4414 84.0215 61.4531H83.2949V57.4688H85.9668V55.5234H83.2832V54.6211H87.0332ZM87.5254 58.1133V57.2109H88.7676V53.7305H89.8223V63.457H88.7676V58.1133H87.5254ZM90.9121 63.9961V53.4961H91.9785V63.9961H90.9121ZM98.1191 54.1289C100.363 54.1348 101.998 55.2422 101.998 56.918C101.998 58.4883 100.627 59.5371 98.6699 59.6953V61.7578H102.947V62.6836H93.3379V61.7578H97.5684V59.6953C95.623 59.5371 94.2461 58.4883 94.252 56.918C94.2461 55.2422 95.8867 54.1348 98.1191 54.1289ZM95.3301 56.918C95.3301 58.0957 96.502 58.8281 98.1191 58.8398C99.748 58.8281 100.914 58.0957 100.92 56.918C100.914 55.7812 99.748 55.0312 98.1191 55.043C96.502 55.0312 95.3301 55.7812 95.3301 56.918ZM112.416 53.4961V59.1328H111.303V53.4961H112.416ZM103.92 56.4141C103.926 54.9727 105.109 53.9707 106.721 53.9766C108.326 53.9707 109.51 54.9727 109.51 56.4141C109.51 57.8496 108.326 58.8516 106.721 58.8398C105.109 58.8516 103.926 57.8496 103.92 56.4141ZM105.01 56.4141C105.004 57.3223 105.725 57.9258 106.721 57.9258C107.705 57.9258 108.42 57.3223 108.42 56.4141C108.42 55.5176 107.705 54.9082 106.721 54.9141C105.725 54.9082 105.004 55.5176 105.01 56.4141ZM105.549 63.8672V59.6367H106.639V60.8203H111.314V59.6367H112.416V63.8672H105.549ZM106.639 62.9531H111.314V61.6992H106.639V62.9531ZM122.799 53.4961V63.9961H121.686V53.4961H122.799ZM114.725 61.3242V54.5156H115.826V60.3633C117.361 60.3574 118.973 60.2227 120.654 59.8828L120.807 60.8203C118.949 61.2012 117.262 61.3301 115.604 61.3242H114.725ZM132.631 53.4961V57.5625H134.318V58.4766H132.631V64.0195H131.518V53.4961H132.631ZM124.896 61.4062V54.5039H129.807V55.4062H126.01V60.4805C127.773 60.4746 129.092 60.3984 130.592 60.1289L130.732 61.0664C129.086 61.3594 127.691 61.4121 125.74 61.4062H124.896ZM136.018 63.082C135.561 63.0762 135.18 62.707 135.186 62.25C135.18 61.793 135.561 61.418 136.018 61.418C136.469 61.418 136.844 61.793 136.85 62.25C136.844 62.707 136.469 63.0762 136.018 63.082Z" fill="#191919" fill-opacity="0.5"/>
<path d="M148.883 20.8359C148.889 20.3789 149.258 19.998 149.715 20.0039C150.172 19.998 150.547 20.3789 150.547 20.8359C150.547 21.2871 150.172 21.6621 149.715 21.668C149.258 21.6621 148.889 21.2871 148.883 20.8359ZM148.883 24C148.889 23.543 149.258 23.1621 149.715 23.168C150.172 23.1621 150.547 23.543 150.547 24C150.547 24.4512 150.172 24.8262 149.715 24.832C149.258 24.8262 148.889 24.4512 148.883 24ZM148.883 27.1641C148.889 26.707 149.258 26.3262 149.715 26.332C150.172 26.3262 150.547 26.707 150.547 27.1641C150.547 27.6152 150.172 27.9902 149.715 27.9961C149.258 27.9902 148.889 27.6152 148.883 27.1641Z" fill="#191919" fill-opacity="0.5"/>
<path d="M25.5239 19.0762V28.6416H23.8833V19.0762H25.5239ZM14.728 23.251C14.728 21.3247 16.2881 19.9478 18.3022 19.9404C20.3164 19.9478 21.8691 21.3247 21.8618 23.251C21.8691 25.2065 20.3164 26.5762 18.3022 26.5762C16.2881 26.5762 14.728 25.2065 14.728 23.251ZM16.3247 23.251C16.3174 24.4229 17.167 25.1553 18.3022 25.1553C19.4082 25.1553 20.2651 24.4229 20.2651 23.251C20.2651 22.1084 19.4082 21.3613 18.3022 21.3613C17.167 21.3613 16.3174 22.1084 16.3247 23.251ZM16.7642 32.04V27.6748H18.4048V30.7217H25.8901V32.04H16.7642ZM32.189 22.2402C32.1743 24.606 33.3608 26.9937 35.4116 27.9824L34.4155 29.2861C32.98 28.561 31.9473 27.1621 31.3833 25.4775C30.8047 27.2793 29.7207 28.7734 28.2046 29.5352L27.2085 28.2314C29.3398 27.2207 30.5557 24.6865 30.563 22.2402V20.1309H32.189V22.2402ZM36.2026 32.3037V19.0615H37.8286V24.2471H39.8647V25.6387H37.8286V32.3037H36.2026ZM50.8657 19.0615V21.7275H52.7114V23.0752H50.8657V25.7119H49.2397V19.0615H50.8657ZM40.8755 25.1553V19.7354H47.145V25.1553H40.8755ZM42.2085 27.543V26.2832H50.8657V29.7549H43.8345V30.8535H51.2759V32.1426H42.2231V28.5684H49.2397V27.543H42.2085ZM42.4722 23.8662H45.5483V21.0244H42.4722V23.8662Z" fill="#191919"/>
<g filter="url(#filter1_d_1632_124)">
<rect x="228" y="5" width="160" height="74" rx="10" fill="white" fill-opacity="0.8" shape-rendering="crispEdges"/>
</g>
<path d="M246.037 53.4844V56.625H247.561V57.5625H246.037V61.207H244.924V53.4844H246.037ZM237.951 56.8242C237.939 55.2949 239.158 54.2168 240.74 54.2109C242.328 54.2168 243.529 55.2949 243.541 56.8242C243.529 58.3535 242.328 59.4434 240.74 59.4375C239.158 59.4434 237.939 58.3535 237.951 56.8242ZM239.041 56.8242C239.029 57.8027 239.779 58.4648 240.74 58.4648C241.713 58.4648 242.445 57.8027 242.451 56.8242C242.445 55.8457 241.713 55.1836 240.74 55.1836C239.779 55.1836 239.029 55.8457 239.041 56.8242ZM239.381 63.7734V60.3984H240.494V62.8711H246.482V63.7734H239.381ZM249.904 54.1055V58.3477C251.598 58.3418 252.816 58.2598 254.193 57.9844L254.322 58.8867C252.822 59.1914 251.498 59.2734 249.6 59.2617H248.779V54.1055H249.904ZM249.846 62.0039C249.84 60.7383 251.188 59.9941 253.396 59.9883C255.594 59.9941 256.941 60.7383 256.947 62.0039C256.941 63.2578 255.594 63.9902 253.396 63.9961C251.188 63.9902 249.84 63.2578 249.846 62.0039ZM250.947 62.0039C250.941 62.7012 251.855 63.1055 253.396 63.1055C254.926 63.1055 255.84 62.7012 255.846 62.0039C255.84 61.2832 254.926 60.873 253.396 60.8672C251.855 60.873 250.941 61.2832 250.947 62.0039ZM252.939 57.3516V56.4961H255.799V55.5117H252.939V54.6445H255.799V53.4961H256.912V59.8945H255.799V57.3516H252.939ZM266.709 53.4961V57.75H268.396V58.6758H266.709V63.9961H265.607V53.4961H266.709ZM258.471 56.0508V55.1367H261.061V53.6367H262.174V55.1367H264.693V56.0508H258.471ZM259.01 59.2617C259.01 57.832 260.111 56.8242 261.623 56.8242C263.129 56.8242 264.23 57.832 264.236 59.2617C264.23 60.7031 263.129 61.7051 261.623 61.7109C260.111 61.7051 259.01 60.7031 259.01 59.2617ZM260.076 59.2617C260.07 60.1758 260.727 60.7852 261.623 60.7734C262.514 60.7852 263.164 60.1758 263.17 59.2617C263.164 58.3652 262.514 57.7441 261.623 57.7383C260.727 57.7441 260.07 58.3652 260.076 59.2617ZM272.1 56.3672C272.1 58.043 272.803 59.8301 274.209 60.6914L273.588 61.5469C272.604 60.9551 271.941 59.9062 271.578 58.6934C271.197 60.0234 270.471 61.1602 269.451 61.7812L268.76 60.9492C270.242 60.0586 271.027 58.2012 271.021 56.4141V54.457H272.1V56.3672ZM273.072 58.1133V57.1875H274.701V53.6953H275.756V63.4805H274.701V58.1133H273.072ZM276.869 63.9961V53.4961H277.936V63.9961H276.869ZM288.881 61.7578V62.6836H279.271V61.7578H281.568V59.0156C280.707 58.541 280.18 57.791 280.186 56.8477C280.18 55.1953 281.803 54.1113 284.053 54.1055C286.309 54.1113 287.932 55.1953 287.932 56.8477C287.932 57.7734 287.428 58.5176 286.584 58.9922V61.7578H288.881ZM281.264 56.8477C281.264 57.9727 282.406 58.7051 284.053 58.7109C285.688 58.7051 286.848 57.9727 286.854 56.8477C286.848 55.7168 285.688 54.9961 284.053 54.9961C282.406 54.9961 281.264 55.7168 281.264 56.8477ZM282.67 61.7578H285.459V59.4258C285.031 59.5254 284.557 59.5781 284.053 59.5781C283.561 59.5781 283.092 59.5254 282.67 59.4258V61.7578ZM290.838 63.082C290.381 63.0762 290 62.707 290.006 62.25C290 61.793 290.381 61.418 290.838 61.418C291.289 61.418 291.664 61.793 291.67 62.25C291.664 62.707 291.289 63.0762 290.838 63.082ZM298.408 54.2812C299.979 54.2871 301.098 55.7168 301.104 57.9609C301.098 60.2285 299.979 61.6582 298.408 61.6523C296.838 61.6582 295.719 60.2285 295.725 57.9609C295.719 55.7168 296.838 54.2871 298.408 54.2812ZM296.791 57.9609C296.785 59.6309 297.453 60.6562 298.408 60.6562C299.381 60.6562 300.037 59.6309 300.037 57.9609C300.037 56.3145 299.381 55.2832 298.408 55.2773C297.453 55.2832 296.785 56.3145 296.791 57.9609ZM302.662 63.9961V53.4961H303.775V57.6094H305.463V58.5469H303.775V63.9961H302.662ZM310.033 54.6211V58.3594H307.373V60.5156C308.516 60.5098 309.605 60.4629 310.9 60.2344L310.994 61.1484C309.535 61.4121 308.34 61.4414 307.021 61.4531H306.295V57.4688H308.967V55.5234H306.283V54.6211H310.033ZM310.525 58.1133V57.2109H311.768V53.7305H312.822V63.457H311.768V58.1133H310.525ZM313.912 63.9961V53.4961H314.979V63.9961H313.912ZM321.119 54.1289C323.363 54.1348 324.998 55.2422 324.998 56.918C324.998 58.4883 323.627 59.5371 321.67 59.6953V61.7578H325.947V62.6836H316.338V61.7578H320.568V59.6953C318.623 59.5371 317.246 58.4883 317.252 56.918C317.246 55.2422 318.887 54.1348 321.119 54.1289ZM318.33 56.918C318.33 58.0957 319.502 58.8281 321.119 58.8398C322.748 58.8281 323.914 58.0957 323.92 56.918C323.914 55.7812 322.748 55.0312 321.119 55.043C319.502 55.0312 318.33 55.7812 318.33 56.918ZM335.416 53.4961V59.1328H334.303V53.4961H335.416ZM326.92 56.4141C326.926 54.9727 328.109 53.9707 329.721 53.9766C331.326 53.9707 332.51 54.9727 332.51 56.4141C332.51 57.8496 331.326 58.8516 329.721 58.8398C328.109 58.8516 326.926 57.8496 326.92 56.4141ZM328.01 56.4141C328.004 57.3223 328.725 57.9258 329.721 57.9258C330.705 57.9258 331.42 57.3223 331.42 56.4141C331.42 55.5176 330.705 54.9082 329.721 54.9141C328.725 54.9082 328.004 55.5176 328.01 56.4141ZM328.549 63.8672V59.6367H329.639V60.8203H334.314V59.6367H335.416V63.8672H328.549ZM329.639 62.9531H334.314V61.6992H329.639V62.9531ZM345.799 53.4961V63.9961H344.686V53.4961H345.799ZM337.725 61.3242V54.5156H338.826V60.3633C340.361 60.3574 341.973 60.2227 343.654 59.8828L343.807 60.8203C341.949 61.2012 340.262 61.3301 338.604 61.3242H337.725ZM355.631 53.4961V57.5625H357.318V58.4766H355.631V64.0195H354.518V53.4961H355.631ZM347.896 61.4062V54.5039H352.807V55.4062H349.01V60.4805C350.773 60.4746 352.092 60.3984 353.592 60.1289L353.732 61.0664C352.086 61.3594 350.691 61.4121 348.74 61.4062H347.896ZM359.018 63.082C358.561 63.0762 358.18 62.707 358.186 62.25C358.18 61.793 358.561 61.418 359.018 61.418C359.469 61.418 359.844 61.793 359.85 62.25C359.844 62.707 359.469 63.0762 359.018 63.082Z" fill="#191919" fill-opacity="0.5"/>
<path d="M371.883 20.8359C371.889 20.3789 372.258 19.998 372.715 20.0039C373.172 19.998 373.547 20.3789 373.547 20.8359C373.547 21.2871 373.172 21.6621 372.715 21.668C372.258 21.6621 371.889 21.2871 371.883 20.8359ZM371.883 24C371.889 23.543 372.258 23.1621 372.715 23.168C373.172 23.1621 373.547 23.543 373.547 24C373.547 24.4512 373.172 24.8262 372.715 24.832C372.258 24.8262 371.889 24.4512 371.883 24ZM371.883 27.1641C371.889 26.707 372.258 26.3262 372.715 26.332C373.172 26.3262 373.547 26.707 373.547 27.1641C373.547 27.6152 373.172 27.9902 372.715 27.9961C372.258 27.9902 371.889 27.6152 371.883 27.1641Z" fill="#191919" fill-opacity="0.5"/>
<path d="M247.884 19.0615V22.9434H249.729V24.291H247.884V28.7441H246.258V19.0615H247.884ZM237.586 23.2803C237.579 21.3247 239.146 19.9478 241.16 19.9404C243.174 19.9478 244.72 21.3247 244.734 23.2803C244.72 25.2065 243.174 26.6055 241.16 26.6055C239.146 26.6055 237.579 25.2065 237.586 23.2803ZM239.183 23.2803C239.175 24.4229 240.054 25.1772 241.16 25.1699C242.281 25.1772 243.13 24.4229 243.138 23.2803C243.13 22.1084 242.281 21.3613 241.16 21.3613C240.054 21.3613 239.175 22.1084 239.183 23.2803ZM239.402 32.04V27.7334H241.028V30.7217H248.411V32.04H239.402ZM261.771 19.0615V32.3037H260.203V25.6094H258.738V31.6299H257.215V19.3105H258.738V24.2764H260.203V19.0615H261.771ZM250.975 29.0078V20.585H252.615V27.5723C253.758 27.5503 255.003 27.4478 256.395 27.1768L256.556 28.5977C254.769 28.9126 253.252 29.0078 251.854 29.0078H250.975ZM274.69 19.0615V28.9346H273.138V19.0615H274.69ZM263.88 26.5176V20.3359H269.095V22.665H270.516V19.2959H272.054V28.5391H270.516V23.998H269.095V26.5176H263.88ZM265.418 25.2578H267.586V21.6104H265.418V25.2578ZM265.828 32.04V27.748H267.454V30.7217H275.057V32.04H265.828ZM287.098 26.0049V27.2939H277.811V20.1016H286.98V21.4199H279.466V23.0166H286.673V24.291H279.466V26.0049H287.098ZM276.331 30.6924V29.3594H288.431V30.6924H276.331Z" fill="#191919"/>
<circle cx="642.004" cy="307" r="15" fill="#191919"/>
<path d="M641.997 312.146C639.733 312.146 638.115 310.916 638.071 309.129H639.99C640.041 309.979 640.891 310.542 641.997 310.535C643.161 310.542 644.003 309.898 644.003 308.953C644.003 308.001 643.183 307.32 641.806 307.312H640.854V305.848H641.806C642.934 305.848 643.718 305.218 643.71 304.295C643.718 303.401 643.044 302.801 642.011 302.801C641.015 302.801 640.158 303.357 640.122 304.251H638.291C638.334 302.471 639.953 301.248 642.026 301.248C644.179 301.248 645.571 302.566 645.556 304.192C645.571 305.379 644.78 306.236 643.623 306.478V306.565C645.117 306.763 645.966 307.723 645.952 309.056C645.966 310.85 644.289 312.146 641.997 312.146Z" fill="white"/>
<g filter="url(#filter2_d_1632_124)">
<rect x="451" y="5" width="160" height="74" rx="10" fill="white" fill-opacity="0.8" shape-rendering="crispEdges"/>
</g>
<path d="M469.037 53.4844V56.625H470.561V57.5625H469.037V61.207H467.924V53.4844H469.037ZM460.951 56.8242C460.939 55.2949 462.158 54.2168 463.74 54.2109C465.328 54.2168 466.529 55.2949 466.541 56.8242C466.529 58.3535 465.328 59.4434 463.74 59.4375C462.158 59.4434 460.939 58.3535 460.951 56.8242ZM462.041 56.8242C462.029 57.8027 462.779 58.4648 463.74 58.4648C464.713 58.4648 465.445 57.8027 465.451 56.8242C465.445 55.8457 464.713 55.1836 463.74 55.1836C462.779 55.1836 462.029 55.8457 462.041 56.8242ZM462.381 63.7734V60.3984H463.494V62.8711H469.482V63.7734H462.381ZM472.904 54.1055V58.3477C474.598 58.3418 475.816 58.2598 477.193 57.9844L477.322 58.8867C475.822 59.1914 474.498 59.2734 472.6 59.2617H471.779V54.1055H472.904ZM472.846 62.0039C472.84 60.7383 474.188 59.9941 476.396 59.9883C478.594 59.9941 479.941 60.7383 479.947 62.0039C479.941 63.2578 478.594 63.9902 476.396 63.9961C474.188 63.9902 472.84 63.2578 472.846 62.0039ZM473.947 62.0039C473.941 62.7012 474.855 63.1055 476.396 63.1055C477.926 63.1055 478.84 62.7012 478.846 62.0039C478.84 61.2832 477.926 60.873 476.396 60.8672C474.855 60.873 473.941 61.2832 473.947 62.0039ZM475.939 57.3516V56.4961H478.799V55.5117H475.939V54.6445H478.799V53.4961H479.912V59.8945H478.799V57.3516H475.939ZM489.709 53.4961V57.75H491.396V58.6758H489.709V63.9961H488.607V53.4961H489.709ZM481.471 56.0508V55.1367H484.061V53.6367H485.174V55.1367H487.693V56.0508H481.471ZM482.01 59.2617C482.01 57.832 483.111 56.8242 484.623 56.8242C486.129 56.8242 487.23 57.832 487.236 59.2617C487.23 60.7031 486.129 61.7051 484.623 61.7109C483.111 61.7051 482.01 60.7031 482.01 59.2617ZM483.076 59.2617C483.07 60.1758 483.727 60.7852 484.623 60.7734C485.514 60.7852 486.164 60.1758 486.17 59.2617C486.164 58.3652 485.514 57.7441 484.623 57.7383C483.727 57.7441 483.07 58.3652 483.076 59.2617ZM495.1 56.3672C495.1 58.043 495.803 59.8301 497.209 60.6914L496.588 61.5469C495.604 60.9551 494.941 59.9062 494.578 58.6934C494.197 60.0234 493.471 61.1602 492.451 61.7812L491.76 60.9492C493.242 60.0586 494.027 58.2012 494.021 56.4141V54.457H495.1V56.3672ZM496.072 58.1133V57.1875H497.701V53.6953H498.756V63.4805H497.701V58.1133H496.072ZM499.869 63.9961V53.4961H500.936V63.9961H499.869ZM511.881 61.7578V62.6836H502.271V61.7578H504.568V59.0156C503.707 58.541 503.18 57.791 503.186 56.8477C503.18 55.1953 504.803 54.1113 507.053 54.1055C509.309 54.1113 510.932 55.1953 510.932 56.8477C510.932 57.7734 510.428 58.5176 509.584 58.9922V61.7578H511.881ZM504.264 56.8477C504.264 57.9727 505.406 58.7051 507.053 58.7109C508.688 58.7051 509.848 57.9727 509.854 56.8477C509.848 55.7168 508.688 54.9961 507.053 54.9961C505.406 54.9961 504.264 55.7168 504.264 56.8477ZM505.67 61.7578H508.459V59.4258C508.031 59.5254 507.557 59.5781 507.053 59.5781C506.561 59.5781 506.092 59.5254 505.67 59.4258V61.7578ZM513.838 63.082C513.381 63.0762 513 62.707 513.006 62.25C513 61.793 513.381 61.418 513.838 61.418C514.289 61.418 514.664 61.793 514.67 62.25C514.664 62.707 514.289 63.0762 513.838 63.082ZM521.408 54.2812C522.979 54.2871 524.098 55.7168 524.104 57.9609C524.098 60.2285 522.979 61.6582 521.408 61.6523C519.838 61.6582 518.719 60.2285 518.725 57.9609C518.719 55.7168 519.838 54.2871 521.408 54.2812ZM519.791 57.9609C519.785 59.6309 520.453 60.6562 521.408 60.6562C522.381 60.6562 523.037 59.6309 523.037 57.9609C523.037 56.3145 522.381 55.2832 521.408 55.2773C520.453 55.2832 519.785 56.3145 519.791 57.9609ZM525.662 63.9961V53.4961H526.775V57.6094H528.463V58.5469H526.775V63.9961H525.662ZM533.033 54.6211V58.3594H530.373V60.5156C531.516 60.5098 532.605 60.4629 533.9 60.2344L533.994 61.1484C532.535 61.4121 531.34 61.4414 530.021 61.4531H529.295V57.4688H531.967V55.5234H529.283V54.6211H533.033ZM533.525 58.1133V57.2109H534.768V53.7305H535.822V63.457H534.768V58.1133H533.525ZM536.912 63.9961V53.4961H537.979V63.9961H536.912ZM544.119 54.1289C546.363 54.1348 547.998 55.2422 547.998 56.918C547.998 58.4883 546.627 59.5371 544.67 59.6953V61.7578H548.947V62.6836H539.338V61.7578H543.568V59.6953C541.623 59.5371 540.246 58.4883 540.252 56.918C540.246 55.2422 541.887 54.1348 544.119 54.1289ZM541.33 56.918C541.33 58.0957 542.502 58.8281 544.119 58.8398C545.748 58.8281 546.914 58.0957 546.92 56.918C546.914 55.7812 545.748 55.0312 544.119 55.043C542.502 55.0312 541.33 55.7812 541.33 56.918ZM558.416 53.4961V59.1328H557.303V53.4961H558.416ZM549.92 56.4141C549.926 54.9727 551.109 53.9707 552.721 53.9766C554.326 53.9707 555.51 54.9727 555.51 56.4141C555.51 57.8496 554.326 58.8516 552.721 58.8398C551.109 58.8516 549.926 57.8496 549.92 56.4141ZM551.01 56.4141C551.004 57.3223 551.725 57.9258 552.721 57.9258C553.705 57.9258 554.42 57.3223 554.42 56.4141C554.42 55.5176 553.705 54.9082 552.721 54.9141C551.725 54.9082 551.004 55.5176 551.01 56.4141ZM551.549 63.8672V59.6367H552.639V60.8203H557.314V59.6367H558.416V63.8672H551.549ZM552.639 62.9531H557.314V61.6992H552.639V62.9531ZM568.799 53.4961V63.9961H567.686V53.4961H568.799ZM560.725 61.3242V54.5156H561.826V60.3633C563.361 60.3574 564.973 60.2227 566.654 59.8828L566.807 60.8203C564.949 61.2012 563.262 61.3301 561.604 61.3242H560.725ZM578.631 53.4961V57.5625H580.318V58.4766H578.631V64.0195H577.518V53.4961H578.631ZM570.896 61.4062V54.5039H575.807V55.4062H572.01V60.4805C573.773 60.4746 575.092 60.3984 576.592 60.1289L576.732 61.0664C575.086 61.3594 573.691 61.4121 571.74 61.4062H570.896ZM582.018 63.082C581.561 63.0762 581.18 62.707 581.186 62.25C581.18 61.793 581.561 61.418 582.018 61.418C582.469 61.418 582.844 61.793 582.85 62.25C582.844 62.707 582.469 63.0762 582.018 63.082Z" fill="#191919" fill-opacity="0.5"/>
<path d="M594.883 20.8359C594.889 20.3789 595.258 19.998 595.715 20.0039C596.172 19.998 596.547 20.3789 596.547 20.8359C596.547 21.2871 596.172 21.6621 595.715 21.668C595.258 21.6621 594.889 21.2871 594.883 20.8359ZM594.883 24C594.889 23.543 595.258 23.1621 595.715 23.168C596.172 23.1621 596.547 23.543 596.547 24C596.547 24.4512 596.172 24.8262 595.715 24.832C595.258 24.8262 594.889 24.4512 594.883 24ZM594.883 27.1641C594.889 26.707 595.258 26.3262 595.715 26.332C596.172 26.3262 596.547 26.707 596.547 27.1641C596.547 27.6152 596.172 27.9902 595.715 27.9961C595.258 27.9902 594.889 27.6152 594.883 27.1641Z" fill="#191919" fill-opacity="0.5"/>
<path d="M470.884 19.0615V22.9434H472.729V24.291H470.884V28.7441H469.258V19.0615H470.884ZM460.586 23.2803C460.579 21.3247 462.146 19.9478 464.16 19.9404C466.174 19.9478 467.72 21.3247 467.734 23.2803C467.72 25.2065 466.174 26.6055 464.16 26.6055C462.146 26.6055 460.579 25.2065 460.586 23.2803ZM462.183 23.2803C462.175 24.4229 463.054 25.1772 464.16 25.1699C465.281 25.1772 466.13 24.4229 466.138 23.2803C466.13 22.1084 465.281 21.3613 464.16 21.3613C463.054 21.3613 462.175 22.1084 462.183 23.2803ZM462.402 32.04V27.7334H464.028V30.7217H471.411V32.04H462.402ZM484.771 19.0615V32.3037H483.203V25.6094H481.738V31.6299H480.215V19.3105H481.738V24.2764H483.203V19.0615H484.771ZM473.975 29.0078V20.585H475.615V27.5723C476.758 27.5503 478.003 27.4478 479.395 27.1768L479.556 28.5977C477.769 28.9126 476.252 29.0078 474.854 29.0078H473.975ZM497.69 19.0615V28.9346H496.138V19.0615H497.69ZM486.88 26.5176V20.3359H492.095V22.665H493.516V19.2959H495.054V28.5391H493.516V23.998H492.095V26.5176H486.88ZM488.418 25.2578H490.586V21.6104H488.418V25.2578ZM488.828 32.04V27.748H490.454V30.7217H498.057V32.04H488.828ZM510.098 26.0049V27.2939H500.811V20.1016H509.98V21.4199H502.466V23.0166H509.673V24.291H502.466V26.0049H510.098ZM499.331 30.6924V29.3594H511.431V30.6924H499.331Z" fill="#191919"/>
<line x1="164.996" y1="41" x2="228.004" y2="41" stroke="#0D42E5"/>
<circle cx="196" cy="41" r="15" fill="#191919"/>
<path d="M198.186 35.3945V46H196.267V37.2549H196.208L193.732 38.8369V37.0938L196.354 35.3945H198.186Z" fill="white"/>
<line x1="611" y1="41" x2="674.008" y2="41" stroke="#0D42E5"/>
<circle cx="642.004" cy="41" r="15" fill="#191919"/>
<path d="M644.189 35.3945V46H642.271V37.2549H642.212L639.736 38.8369V37.0938L642.358 35.3945H644.189Z" fill="white"/>
<circle cx="196" cy="307" r="15" fill="#191919"/>
<path d="M195.993 312.146C193.729 312.146 192.111 310.916 192.067 309.129H193.986C194.037 309.979 194.887 310.542 195.993 310.535C197.157 310.542 198 309.898 198 308.953C198 308.001 197.179 307.32 195.802 307.312H194.85V305.848H195.802C196.93 305.848 197.714 305.218 197.707 304.295C197.714 303.401 197.04 302.801 196.007 302.801C195.011 302.801 194.154 303.357 194.118 304.251H192.287C192.331 302.471 193.949 301.248 196.022 301.248C198.175 301.248 199.567 302.566 199.552 304.192C199.567 305.379 198.776 306.236 197.619 306.478V306.565C199.113 306.763 199.962 307.723 199.948 309.056C199.962 310.85 198.285 312.146 195.993 312.146Z" fill="white"/>
<circle cx="642.004" cy="440" r="15" fill="#191919"/>
<path d="M637.851 443.022V441.499L642.436 434.395H644.809V441.455H646.201V443.022H644.809V445H642.993V443.022H637.851ZM639.799 441.455H643.022V436.562H642.905L639.799 441.382V441.455Z" fill="white"/>
<line x1="388" y1="41" x2="451.008" y2="41" stroke="#0D42E5"/>
<circle cx="419.004" cy="41" r="15" fill="#191919"/>
<path d="M421.189 35.3945V46H419.271V37.2549H419.212L416.736 38.8369V37.0938L419.358 35.3945H421.189Z" fill="white"/>
<line x1="834" y1="440" x2="897.008" y2="440" stroke="#0D42E5"/>
<circle cx="865.004" cy="440" r="15" fill="#191919"/>
<path d="M867.189 434.395V445H865.271V436.255H865.212L862.736 437.837V436.094L865.358 434.395H867.189Z" fill="white"/>
<g filter="url(#filter3_d_1632_124)">
<rect x="228" y="137" width="160" height="74" rx="10" fill="#EFEFFF"/>
</g>
<g filter="url(#filter4_d_1632_124)">
<rect x="674.004" y="137" width="160" height="74" rx="10" fill="#EFEFFF"/>
</g>
<g filter="url(#filter5_d_1632_124)">
<rect x="674" y="270" width="160" height="74" rx="10" fill="#EFEFFF"/>
</g>
<path d="M683.469 326.207C683.463 324.754 684.699 324.379 685.848 324.297C686.27 324.273 687.225 324.221 687.518 324.209L687.512 323.699C687.518 322.979 687.072 322.562 686.223 322.562C685.484 322.562 685.039 322.902 684.91 323.371H683.668C683.779 322.316 684.764 321.555 686.27 321.555C687.283 321.555 688.76 321.924 688.766 323.77V328H687.547V327.133H687.5C687.254 327.607 686.668 328.141 685.613 328.141C684.406 328.141 683.463 327.449 683.469 326.207ZM684.688 326.219C684.688 326.828 685.191 327.139 685.895 327.145C686.914 327.139 687.523 326.459 687.523 325.703L687.518 325.123C687.23 325.141 686.322 325.205 686.023 325.223C685.203 325.281 684.688 325.592 684.688 326.219ZM690.277 328V321.637H691.484V322.645H691.555C691.789 321.965 692.428 321.537 693.172 321.543C693.324 321.537 693.57 321.555 693.699 321.566V322.762C693.594 322.738 693.301 322.686 693.043 322.691C692.176 322.686 691.531 323.289 691.531 324.121V328H690.277ZM694.637 328V321.637H695.844V322.645H695.914C696.148 321.965 696.787 321.537 697.531 321.543C697.684 321.537 697.93 321.555 698.059 321.566V322.762C697.953 322.738 697.66 322.686 697.402 322.691C696.535 322.686 695.891 323.289 695.891 324.121V328H694.637ZM701.527 328.129C699.652 328.129 698.498 326.834 698.504 324.859C698.498 322.902 699.67 321.555 701.445 321.555C702.893 321.555 704.27 322.451 704.27 324.754V325.199H699.746C699.781 326.412 700.496 327.098 701.539 327.098C702.248 327.098 702.711 326.793 702.922 326.406H704.188C703.906 327.438 702.928 328.129 701.527 328.129ZM699.752 324.262H703.039C703.039 323.295 702.412 322.58 701.457 322.586C700.455 322.58 699.805 323.365 699.752 324.262ZM708.207 328.129C706.402 328.129 705.225 326.816 705.23 324.848C705.225 322.867 706.402 321.555 708.207 321.555C710 321.555 711.172 322.867 711.172 324.848C711.172 326.816 710 328.129 708.207 328.129ZM706.484 324.848C706.484 326.061 707.041 327.086 708.207 327.086C709.355 327.086 709.906 326.061 709.906 324.848C709.906 323.629 709.355 322.592 708.207 322.586C707.041 322.592 706.484 323.629 706.484 324.848ZM713.223 328.082C712.766 328.076 712.385 327.707 712.391 327.25C712.385 326.793 712.766 326.418 713.223 326.418C713.674 326.418 714.049 326.793 714.055 327.25C714.049 327.707 713.674 328.076 713.223 328.082ZM718.262 328.129C716.404 328.129 715.279 326.764 715.285 324.848C715.279 322.908 716.445 321.555 718.238 321.555C719.691 321.555 720.74 322.41 720.875 323.699H719.656C719.527 323.102 719.053 322.604 718.262 322.598C717.23 322.604 716.539 323.459 716.539 324.812C716.539 326.207 717.213 327.068 718.262 327.062C718.971 327.068 719.498 326.67 719.656 325.984H720.875C720.74 327.221 719.762 328.129 718.262 328.129ZM724.754 328.129C722.949 328.129 721.771 326.816 721.777 324.848C721.771 322.867 722.949 321.555 724.754 321.555C726.547 321.555 727.719 322.867 727.719 324.848C727.719 326.816 726.547 328.129 724.754 328.129ZM723.031 324.848C723.031 326.061 723.588 327.086 724.754 327.086C725.902 327.086 726.453 326.061 726.453 324.848C726.453 323.629 725.902 322.592 724.754 322.586C723.588 322.592 723.031 323.629 723.031 324.848ZM728.949 328V321.637H730.156V322.68H730.227C730.496 321.971 731.123 321.555 731.961 321.555C732.811 321.555 733.402 321.971 733.672 322.68H733.742C734.041 321.994 734.732 321.555 735.652 321.555C736.801 321.555 737.615 322.275 737.621 323.734V328H736.367V323.852C736.367 322.99 735.828 322.633 735.172 322.633C734.369 322.633 733.906 323.184 733.906 323.945V328H732.664V323.781C732.664 323.084 732.189 322.633 731.504 322.633C730.801 322.633 730.203 323.219 730.203 324.074V328H728.949Z" fill="#191919" fill-opacity="0.5"/>
<path d="M817.883 285.836C817.889 285.379 818.258 284.998 818.715 285.004C819.172 284.998 819.547 285.379 819.547 285.836C819.547 286.287 819.172 286.662 818.715 286.668C818.258 286.662 817.889 286.287 817.883 285.836ZM817.883 289C817.889 288.543 818.258 288.162 818.715 288.168C819.172 288.162 819.547 288.543 819.547 289C819.547 289.451 819.172 289.826 818.715 289.832C818.258 289.826 817.889 289.451 817.883 289ZM817.883 292.164C817.889 291.707 818.258 291.326 818.715 291.332C819.172 291.326 819.547 291.707 819.547 292.164C819.547 292.615 819.172 292.99 818.715 292.996C818.258 292.99 817.889 292.615 817.883 292.164Z" fill="#191919" fill-opacity="0.5"/>
<path d="M694.865 284.062V292.221H693.298V284.062H694.865ZM683.352 289.042C685.124 289.049 688.046 289.013 690.207 288.676L690.31 289.774C689.497 289.95 688.61 290.067 687.717 290.141V292.162H686.149V290.236C685.168 290.272 684.245 290.28 683.513 290.272L683.352 289.042ZM683.952 286.493C683.952 285.277 685.124 284.53 686.867 284.53C688.588 284.53 689.768 285.277 689.768 286.493C689.768 287.694 688.588 288.471 686.867 288.471C685.124 288.471 683.952 287.694 683.952 286.493ZM685.432 286.493C685.439 287.042 685.974 287.321 686.867 287.328C687.739 287.321 688.31 287.042 688.317 286.493C688.31 285.951 687.739 285.658 686.867 285.658C685.974 285.658 685.439 285.951 685.432 286.493ZM685.578 297.143V292.66H687.189V293.671H693.239V292.66H694.865V297.143H685.578ZM687.189 295.868H693.239V294.916H687.189V295.868ZM688.713 291.649V290.536H690.822V284.296H692.36V292.206H690.822V291.649H688.713ZM707.434 284.076V292.147H705.793V284.076H707.434ZM697.077 286.2V284.867H703.186V288.749H698.703V290.17C700.966 290.163 702.585 290.089 704.475 289.804L704.68 291.107C702.592 291.452 700.798 291.51 698.234 291.503H697.106V287.533H701.574V286.2H697.077ZM698.454 294.843C698.447 293.275 700.161 292.382 702.98 292.382C705.786 292.382 707.507 293.275 707.507 294.843C707.507 296.381 705.786 297.289 702.98 297.289C700.161 297.289 698.447 296.381 698.454 294.843ZM700.065 294.843C700.065 295.604 701.105 296.007 702.98 296.015C704.841 296.007 705.874 295.604 705.881 294.843C705.874 294.074 704.841 293.656 702.98 293.656C701.105 293.656 700.065 294.074 700.065 294.843ZM720.104 285.292V286.874C720.104 288.8 720.104 290.617 719.519 293.422L717.893 293.275C718.164 292.118 718.31 291.1 718.398 290.163L710.598 290.565L710.378 289.247L718.471 288.939C718.5 288.229 718.508 287.548 718.508 286.874V286.61H710.773V285.292H720.104ZM709.367 295.619V294.286H721.438V295.619H709.367ZM727.956 284.647V286.332H731.047V284.647H732.658V290.419H726.345V284.647H727.956ZM727.678 292.646V291.371H736.335V294.843H729.304V295.897H736.745V297.187H727.692V293.656H734.709V292.646H727.678ZM727.956 289.13H731.047V287.562H727.956V289.13ZM734.709 290.844V284.062H736.335V286.742H738.181V288.061H736.335V290.844H734.709ZM745.681 288.734V290.463H750.925V291.767H738.854V290.463H744.069V288.734H745.681ZM739.514 288.207C742.246 287.863 744.04 286.361 744.04 284.779V284.281H745.695V284.779C745.695 286.398 747.475 287.863 750.236 288.207L749.606 289.481C747.438 289.152 745.703 288.17 744.86 286.779C744.011 288.163 742.282 289.152 740.1 289.481L739.514 288.207ZM740.261 294.96C740.261 293.473 741.982 292.624 744.875 292.631C747.746 292.624 749.453 293.473 749.46 294.96C749.453 296.461 747.746 297.289 744.875 297.289C741.982 297.289 740.261 296.461 740.261 294.96ZM741.916 294.96C741.909 295.685 742.927 296.059 744.875 296.059C746.787 296.059 747.819 295.685 747.834 294.96C747.819 294.235 746.787 293.876 744.875 293.876C742.927 293.876 741.909 294.235 741.916 294.96Z" fill="#191919"/>
<path d="M246.037 185.484V188.625H247.561V189.562H246.037V193.207H244.924V185.484H246.037ZM237.951 188.824C237.939 187.295 239.158 186.217 240.74 186.211C242.328 186.217 243.529 187.295 243.541 188.824C243.529 190.354 242.328 191.443 240.74 191.438C239.158 191.443 237.939 190.354 237.951 188.824ZM239.041 188.824C239.029 189.803 239.779 190.465 240.74 190.465C241.713 190.465 242.445 189.803 242.451 188.824C242.445 187.846 241.713 187.184 240.74 187.184C239.779 187.184 239.029 187.846 239.041 188.824ZM239.381 195.773V192.398H240.494V194.871H246.482V195.773H239.381ZM249.904 186.105V190.348C251.598 190.342 252.816 190.26 254.193 189.984L254.322 190.887C252.822 191.191 251.498 191.273 249.6 191.262H248.779V186.105H249.904ZM249.846 194.004C249.84 192.738 251.188 191.994 253.396 191.988C255.594 191.994 256.941 192.738 256.947 194.004C256.941 195.258 255.594 195.99 253.396 195.996C251.188 195.99 249.84 195.258 249.846 194.004ZM250.947 194.004C250.941 194.701 251.855 195.105 253.396 195.105C254.926 195.105 255.84 194.701 255.846 194.004C255.84 193.283 254.926 192.873 253.396 192.867C251.855 192.873 250.941 193.283 250.947 194.004ZM252.939 189.352V188.496H255.799V187.512H252.939V186.645H255.799V185.496H256.912V191.895H255.799V189.352H252.939ZM266.709 185.496V189.75H268.396V190.676H266.709V195.996H265.607V185.496H266.709ZM258.471 188.051V187.137H261.061V185.637H262.174V187.137H264.693V188.051H258.471ZM259.01 191.262C259.01 189.832 260.111 188.824 261.623 188.824C263.129 188.824 264.23 189.832 264.236 191.262C264.23 192.703 263.129 193.705 261.623 193.711C260.111 193.705 259.01 192.703 259.01 191.262ZM260.076 191.262C260.07 192.176 260.727 192.785 261.623 192.773C262.514 192.785 263.164 192.176 263.17 191.262C263.164 190.365 262.514 189.744 261.623 189.738C260.727 189.744 260.07 190.365 260.076 191.262ZM272.1 188.367C272.1 190.043 272.803 191.83 274.209 192.691L273.588 193.547C272.604 192.955 271.941 191.906 271.578 190.693C271.197 192.023 270.471 193.16 269.451 193.781L268.76 192.949C270.242 192.059 271.027 190.201 271.021 188.414V186.457H272.1V188.367ZM273.072 190.113V189.188H274.701V185.695H275.756V195.48H274.701V190.113H273.072ZM276.869 195.996V185.496H277.936V195.996H276.869ZM288.881 193.758V194.684H279.271V193.758H281.568V191.016C280.707 190.541 280.18 189.791 280.186 188.848C280.18 187.195 281.803 186.111 284.053 186.105C286.309 186.111 287.932 187.195 287.932 188.848C287.932 189.773 287.428 190.518 286.584 190.992V193.758H288.881ZM281.264 188.848C281.264 189.973 282.406 190.705 284.053 190.711C285.688 190.705 286.848 189.973 286.854 188.848C286.848 187.717 285.688 186.996 284.053 186.996C282.406 186.996 281.264 187.717 281.264 188.848ZM282.67 193.758H285.459V191.426C285.031 191.525 284.557 191.578 284.053 191.578C283.561 191.578 283.092 191.525 282.67 191.426V193.758ZM290.838 195.082C290.381 195.076 290 194.707 290.006 194.25C290 193.793 290.381 193.418 290.838 193.418C291.289 193.418 291.664 193.793 291.67 194.25C291.664 194.707 291.289 195.076 290.838 195.082ZM298.408 186.281C299.979 186.287 301.098 187.717 301.104 189.961C301.098 192.229 299.979 193.658 298.408 193.652C296.838 193.658 295.719 192.229 295.725 189.961C295.719 187.717 296.838 186.287 298.408 186.281ZM296.791 189.961C296.785 191.631 297.453 192.656 298.408 192.656C299.381 192.656 300.037 191.631 300.037 189.961C300.037 188.314 299.381 187.283 298.408 187.277C297.453 187.283 296.785 188.314 296.791 189.961ZM302.662 195.996V185.496H303.775V189.609H305.463V190.547H303.775V195.996H302.662ZM310.033 186.621V190.359H307.373V192.516C308.516 192.51 309.605 192.463 310.9 192.234L310.994 193.148C309.535 193.412 308.34 193.441 307.021 193.453H306.295V189.469H308.967V187.523H306.283V186.621H310.033ZM310.525 190.113V189.211H311.768V185.73H312.822V195.457H311.768V190.113H310.525ZM313.912 195.996V185.496H314.979V195.996H313.912ZM321.119 186.129C323.363 186.135 324.998 187.242 324.998 188.918C324.998 190.488 323.627 191.537 321.67 191.695V193.758H325.947V194.684H316.338V193.758H320.568V191.695C318.623 191.537 317.246 190.488 317.252 188.918C317.246 187.242 318.887 186.135 321.119 186.129ZM318.33 188.918C318.33 190.096 319.502 190.828 321.119 190.84C322.748 190.828 323.914 190.096 323.92 188.918C323.914 187.781 322.748 187.031 321.119 187.043C319.502 187.031 318.33 187.781 318.33 188.918ZM335.416 185.496V191.133H334.303V185.496H335.416ZM326.92 188.414C326.926 186.973 328.109 185.971 329.721 185.977C331.326 185.971 332.51 186.973 332.51 188.414C332.51 189.85 331.326 190.852 329.721 190.84C328.109 190.852 326.926 189.85 326.92 188.414ZM328.01 188.414C328.004 189.322 328.725 189.926 329.721 189.926C330.705 189.926 331.42 189.322 331.42 188.414C331.42 187.518 330.705 186.908 329.721 186.914C328.725 186.908 328.004 187.518 328.01 188.414ZM328.549 195.867V191.637H329.639V192.82H334.314V191.637H335.416V195.867H328.549ZM329.639 194.953H334.314V193.699H329.639V194.953ZM345.799 185.496V195.996H344.686V185.496H345.799ZM337.725 193.324V186.516H338.826V192.363C340.361 192.357 341.973 192.223 343.654 191.883L343.807 192.82C341.949 193.201 340.262 193.33 338.604 193.324H337.725ZM355.631 185.496V189.562H357.318V190.477H355.631V196.02H354.518V185.496H355.631ZM347.896 193.406V186.504H352.807V187.406H349.01V192.48C350.773 192.475 352.092 192.398 353.592 192.129L353.732 193.066C352.086 193.359 350.691 193.412 348.74 193.406H347.896ZM359.018 195.082C358.561 195.076 358.18 194.707 358.186 194.25C358.18 193.793 358.561 193.418 359.018 193.418C359.469 193.418 359.844 193.793 359.85 194.25C359.844 194.707 359.469 195.076 359.018 195.082Z" fill="#191919" fill-opacity="0.5"/>
<path d="M371.883 152.836C371.889 152.379 372.258 151.998 372.715 152.004C373.172 151.998 373.547 152.379 373.547 152.836C373.547 153.287 373.172 153.662 372.715 153.668C372.258 153.662 371.889 153.287 371.883 152.836ZM371.883 156C371.889 155.543 372.258 155.162 372.715 155.168C373.172 155.162 373.547 155.543 373.547 156C373.547 156.451 373.172 156.826 372.715 156.832C372.258 156.826 371.889 156.451 371.883 156ZM371.883 159.164C371.889 158.707 372.258 158.326 372.715 158.332C373.172 158.326 373.547 158.707 373.547 159.164C373.547 159.615 373.172 159.99 372.715 159.996C372.258 159.99 371.889 159.615 371.883 159.164Z" fill="#191919" fill-opacity="0.5"/>
<path d="M249.524 157.683V158.986H244.412V161.418H242.801V158.986H237.425V157.683H249.524ZM238.89 164.04V160.202H240.516V162.722H248.191V164.04H238.89ZM238.963 156.452V151.662H247.972V156.452H238.963ZM240.545 155.178H246.36V152.937H240.545V155.178ZM255.149 154.826C255.142 156.87 256.373 159.199 258.46 160.173L257.552 161.462C256.058 160.759 254.952 159.338 254.358 157.683C253.758 159.499 252.601 161.052 251.077 161.784L250.125 160.51C252.234 159.506 253.516 157.031 253.523 154.826V153.713H250.638V152.365H257.918V153.713H255.149V154.826ZM259.148 164.304V151.062H260.774V156.218H262.811V157.58H260.774V164.304H259.148ZM265.433 151.647V153.332H268.523V151.647H270.135V157.419H263.821V151.647H265.433ZM265.154 159.646V158.371H273.812V161.843H266.78V162.897H274.222V164.187H265.169V160.656H272.186V159.646H265.154ZM265.433 156.13H268.523V154.562H265.433V156.13ZM272.186 157.844V151.062H273.812V153.742H275.657V155.061H273.812V157.844H272.186ZM283.157 155.734V157.463H288.401V158.767H276.331V157.463H281.546V155.734H283.157ZM276.99 155.207C279.722 154.863 281.517 153.361 281.517 151.779V151.281H283.172V151.779C283.172 153.398 284.952 154.863 287.713 155.207L287.083 156.481C284.915 156.152 283.179 155.17 282.337 153.779C281.487 155.163 279.759 156.152 277.576 156.481L276.99 155.207ZM277.737 161.96C277.737 160.473 279.458 159.624 282.352 159.631C285.223 159.624 286.929 160.473 286.937 161.96C286.929 163.461 285.223 164.289 282.352 164.289C279.458 164.289 277.737 163.461 277.737 161.96ZM279.393 161.96C279.385 162.685 280.403 163.059 282.352 163.059C284.263 163.059 285.296 162.685 285.311 161.96C285.296 161.235 284.263 160.876 282.352 160.876C280.403 160.876 279.385 161.235 279.393 161.96Z" fill="#191919"/>
<path d="M692.041 185.484V188.625H693.564V189.562H692.041V193.207H690.928V185.484H692.041ZM683.955 188.824C683.943 187.295 685.162 186.217 686.744 186.211C688.332 186.217 689.533 187.295 689.545 188.824C689.533 190.354 688.332 191.443 686.744 191.438C685.162 191.443 683.943 190.354 683.955 188.824ZM685.045 188.824C685.033 189.803 685.783 190.465 686.744 190.465C687.717 190.465 688.449 189.803 688.455 188.824C688.449 187.846 687.717 187.184 686.744 187.184C685.783 187.184 685.033 187.846 685.045 188.824ZM685.385 195.773V192.398H686.498V194.871H692.486V195.773H685.385ZM695.908 186.105V190.348C697.602 190.342 698.82 190.26 700.197 189.984L700.326 190.887C698.826 191.191 697.502 191.273 695.604 191.262H694.783V186.105H695.908ZM695.85 194.004C695.844 192.738 697.191 191.994 699.4 191.988C701.598 191.994 702.945 192.738 702.951 194.004C702.945 195.258 701.598 195.99 699.4 195.996C697.191 195.99 695.844 195.258 695.85 194.004ZM696.951 194.004C696.945 194.701 697.859 195.105 699.4 195.105C700.93 195.105 701.844 194.701 701.85 194.004C701.844 193.283 700.93 192.873 699.4 192.867C697.859 192.873 696.945 193.283 696.951 194.004ZM698.943 189.352V188.496H701.803V187.512H698.943V186.645H701.803V185.496H702.916V191.895H701.803V189.352H698.943ZM712.713 185.496V189.75H714.4V190.676H712.713V195.996H711.611V185.496H712.713ZM704.475 188.051V187.137H707.064V185.637H708.178V187.137H710.697V188.051H704.475ZM705.014 191.262C705.014 189.832 706.115 188.824 707.627 188.824C709.133 188.824 710.234 189.832 710.24 191.262C710.234 192.703 709.133 193.705 707.627 193.711C706.115 193.705 705.014 192.703 705.014 191.262ZM706.08 191.262C706.074 192.176 706.73 192.785 707.627 192.773C708.518 192.785 709.168 192.176 709.174 191.262C709.168 190.365 708.518 189.744 707.627 189.738C706.73 189.744 706.074 190.365 706.08 191.262ZM718.104 188.367C718.104 190.043 718.807 191.83 720.213 192.691L719.592 193.547C718.607 192.955 717.945 191.906 717.582 190.693C717.201 192.023 716.475 193.16 715.455 193.781L714.764 192.949C716.246 192.059 717.031 190.201 717.025 188.414V186.457H718.104V188.367ZM719.076 190.113V189.188H720.705V185.695H721.76V195.48H720.705V190.113H719.076ZM722.873 195.996V185.496H723.939V195.996H722.873ZM734.885 193.758V194.684H725.275V193.758H727.572V191.016C726.711 190.541 726.184 189.791 726.189 188.848C726.184 187.195 727.807 186.111 730.057 186.105C732.312 186.111 733.936 187.195 733.936 188.848C733.936 189.773 733.432 190.518 732.588 190.992V193.758H734.885ZM727.268 188.848C727.268 189.973 728.41 190.705 730.057 190.711C731.691 190.705 732.852 189.973 732.857 188.848C732.852 187.717 731.691 186.996 730.057 186.996C728.41 186.996 727.268 187.717 727.268 188.848ZM728.674 193.758H731.463V191.426C731.035 191.525 730.561 191.578 730.057 191.578C729.564 191.578 729.096 191.525 728.674 191.426V193.758ZM736.842 195.082C736.385 195.076 736.004 194.707 736.01 194.25C736.004 193.793 736.385 193.418 736.842 193.418C737.293 193.418 737.668 193.793 737.674 194.25C737.668 194.707 737.293 195.076 736.842 195.082ZM744.412 186.281C745.982 186.287 747.102 187.717 747.107 189.961C747.102 192.229 745.982 193.658 744.412 193.652C742.842 193.658 741.723 192.229 741.729 189.961C741.723 187.717 742.842 186.287 744.412 186.281ZM742.795 189.961C742.789 191.631 743.457 192.656 744.412 192.656C745.385 192.656 746.041 191.631 746.041 189.961C746.041 188.314 745.385 187.283 744.412 187.277C743.457 187.283 742.789 188.314 742.795 189.961ZM748.666 195.996V185.496H749.779V189.609H751.467V190.547H749.779V195.996H748.666ZM756.037 186.621V190.359H753.377V192.516C754.52 192.51 755.609 192.463 756.904 192.234L756.998 193.148C755.539 193.412 754.344 193.441 753.025 193.453H752.299V189.469H754.971V187.523H752.287V186.621H756.037ZM756.529 190.113V189.211H757.771V185.73H758.826V195.457H757.771V190.113H756.529ZM759.916 195.996V185.496H760.982V195.996H759.916ZM767.123 186.129C769.367 186.135 771.002 187.242 771.002 188.918C771.002 190.488 769.631 191.537 767.674 191.695V193.758H771.951V194.684H762.342V193.758H766.572V191.695C764.627 191.537 763.25 190.488 763.256 188.918C763.25 187.242 764.891 186.135 767.123 186.129ZM764.334 188.918C764.334 190.096 765.506 190.828 767.123 190.84C768.752 190.828 769.918 190.096 769.924 188.918C769.918 187.781 768.752 187.031 767.123 187.043C765.506 187.031 764.334 187.781 764.334 188.918ZM781.42 185.496V191.133H780.307V185.496H781.42ZM772.924 188.414C772.93 186.973 774.113 185.971 775.725 185.977C777.33 185.971 778.514 186.973 778.514 188.414C778.514 189.85 777.33 190.852 775.725 190.84C774.113 190.852 772.93 189.85 772.924 188.414ZM774.014 188.414C774.008 189.322 774.729 189.926 775.725 189.926C776.709 189.926 777.424 189.322 777.424 188.414C777.424 187.518 776.709 186.908 775.725 186.914C774.729 186.908 774.008 187.518 774.014 188.414ZM774.553 195.867V191.637H775.643V192.82H780.318V191.637H781.42V195.867H774.553ZM775.643 194.953H780.318V193.699H775.643V194.953ZM791.803 185.496V195.996H790.689V185.496H791.803ZM783.729 193.324V186.516H784.83V192.363C786.365 192.357 787.977 192.223 789.658 191.883L789.811 192.82C787.953 193.201 786.266 193.33 784.607 193.324H783.729ZM801.635 185.496V189.562H803.322V190.477H801.635V196.02H800.521V185.496H801.635ZM793.9 193.406V186.504H798.811V187.406H795.014V192.48C796.777 192.475 798.096 192.398 799.596 192.129L799.736 193.066C798.09 193.359 796.695 193.412 794.744 193.406H793.9ZM805.021 195.082C804.564 195.076 804.184 194.707 804.189 194.25C804.184 193.793 804.564 193.418 805.021 193.418C805.473 193.418 805.848 193.793 805.854 194.25C805.848 194.707 805.473 195.076 805.021 195.082Z" fill="#191919" fill-opacity="0.5"/>
<path d="M817.887 152.836C817.893 152.379 818.262 151.998 818.719 152.004C819.176 151.998 819.551 152.379 819.551 152.836C819.551 153.287 819.176 153.662 818.719 153.668C818.262 153.662 817.893 153.287 817.887 152.836ZM817.887 156C817.893 155.543 818.262 155.162 818.719 155.168C819.176 155.162 819.551 155.543 819.551 156C819.551 156.451 819.176 156.826 818.719 156.832C818.262 156.826 817.893 156.451 817.887 156ZM817.887 159.164C817.893 158.707 818.262 158.326 818.719 158.332C819.176 158.326 819.551 158.707 819.551 159.164C819.551 159.615 819.176 159.99 818.719 159.996C818.262 159.99 817.893 159.615 817.887 159.164Z" fill="#191919" fill-opacity="0.5"/>
<path d="M695.528 157.683V158.986H690.416V161.418H688.805V158.986H683.429V157.683H695.528ZM684.894 164.04V160.202H686.52V162.722H694.195V164.04H684.894ZM684.967 156.452V151.662H693.976V156.452H684.967ZM686.549 155.178H692.364V152.937H686.549V155.178ZM701.153 154.826C701.146 156.87 702.376 159.199 704.464 160.173L703.556 161.462C702.062 160.759 700.956 159.338 700.362 157.683C699.762 159.499 698.604 161.052 697.081 161.784L696.129 160.51C698.238 159.506 699.52 157.031 699.527 154.826V153.713H696.642V152.365H703.922V153.713H701.153V154.826ZM705.152 164.304V151.062H706.778V156.218H708.814V157.58H706.778V164.304H705.152ZM711.437 151.647V153.332H714.527V151.647H716.139V157.419H709.825V151.647H711.437ZM711.158 159.646V158.371H719.815V161.843H712.784V162.897H720.226V164.187H711.173V160.656H718.189V159.646H711.158ZM711.437 156.13H714.527V154.562H711.437V156.13ZM718.189 157.844V151.062H719.815V153.742H721.661V155.061H719.815V157.844H718.189ZM729.161 155.734V157.463H734.405V158.767H722.335V157.463H727.55V155.734H729.161ZM722.994 155.207C725.726 154.863 727.521 153.361 727.521 151.779V151.281H729.176V151.779C729.176 153.398 730.956 154.863 733.717 155.207L733.087 156.481C730.919 156.152 729.183 155.17 728.341 153.779C727.491 155.163 725.763 156.152 723.58 156.481L722.994 155.207ZM723.741 161.96C723.741 160.473 725.462 159.624 728.355 159.631C731.227 159.624 732.933 160.473 732.94 161.96C732.933 163.461 731.227 164.289 728.355 164.289C725.462 164.289 723.741 163.461 723.741 161.96ZM725.396 161.96C725.389 162.685 726.407 163.059 728.355 163.059C730.267 163.059 731.3 162.685 731.314 161.96C731.3 161.235 730.267 160.876 728.355 160.876C726.407 160.876 725.389 161.235 725.396 161.96Z" fill="#191919"/>
<g filter="url(#filter6_d_1632_124)">
<rect x="674" y="5" width="160" height="74" rx="10" fill="#DBDBF0"/>
</g>
<path d="M692.223 53.4961V63.9961H691.098V53.4961H692.223ZM683.316 58.4414C684.682 58.4355 686.252 58.4238 687.816 58.3477C688.074 56.9531 688.121 55.9043 688.139 55.1836H684.23V54.2812H689.246V54.7617C689.24 55.4473 689.24 56.625 688.953 58.2832C689.439 58.248 689.926 58.207 690.395 58.1602L690.465 58.9922C689.428 59.127 688.355 59.2148 687.301 59.2734V63.3867H686.188V59.3262C685.232 59.3555 684.312 59.3672 683.469 59.3672L683.316 58.4414ZM701.938 53.4961V57.75H703.625V58.6758H701.938V63.9961H700.836V53.4961H701.938ZM693.699 56.0508V55.1367H696.289V53.6367H697.402V55.1367H699.922V56.0508H693.699ZM694.238 59.2617C694.238 57.832 695.34 56.8242 696.852 56.8242C698.357 56.8242 699.459 57.832 699.465 59.2617C699.459 60.7031 698.357 61.7051 696.852 61.7109C695.34 61.7051 694.238 60.7031 694.238 59.2617ZM695.305 59.2617C695.299 60.1758 695.955 60.7852 696.852 60.7734C697.742 60.7852 698.393 60.1758 698.398 59.2617C698.393 58.3652 697.742 57.7441 696.852 57.7383C695.955 57.7441 695.299 58.3652 695.305 59.2617ZM707.551 54.2461C709.209 54.2402 710.404 55.2656 710.41 56.7422C710.404 58.2188 709.209 59.2441 707.551 59.25C705.898 59.2441 704.686 58.2188 704.691 56.7422C704.686 55.2656 705.898 54.2402 707.551 54.2461ZM704.188 60.832C706.098 60.832 708.746 60.8145 711.043 60.4805L711.125 61.2891C708.752 61.7461 706.203 61.7578 704.328 61.7578L704.188 60.832ZM705.793 56.7422C705.781 57.6738 706.531 58.2773 707.551 58.2773C708.57 58.2773 709.32 57.6738 709.32 56.7422C709.32 55.8223 708.57 55.207 707.551 55.207C706.531 55.207 705.781 55.8223 705.793 56.7422ZM711.699 64.0195V53.4961H712.812V64.0195H711.699ZM727.027 58.8047V59.707H722.855V61.7461H721.754V59.707H717.418V58.8047H727.027ZM718.613 63.7734V60.75H719.727V62.8711H725.961V63.7734H718.613ZM718.648 57.7148V53.9883H725.785V57.7148H718.648ZM719.738 56.8359H724.684V54.8672H719.738V56.8359ZM731.223 54.2461C732.881 54.2402 734.076 55.2656 734.082 56.7422C734.076 58.2188 732.881 59.2441 731.223 59.25C729.57 59.2441 728.357 58.2188 728.363 56.7422C728.357 55.2656 729.57 54.2402 731.223 54.2461ZM727.859 60.832C729.77 60.832 732.418 60.8145 734.715 60.4805L734.797 61.2891C732.424 61.7461 729.875 61.7578 728 61.7578L727.859 60.832ZM729.465 56.7422C729.453 57.6738 730.203 58.2773 731.223 58.2773C732.242 58.2773 732.992 57.6738 732.992 56.7422C732.992 55.8223 732.242 55.207 731.223 55.207C730.203 55.207 729.453 55.8223 729.465 56.7422ZM735.371 64.0195V53.4961H736.484V64.0195H735.371ZM741.816 56.168C741.805 58.0254 742.889 59.9297 744.453 60.6914L743.762 61.582C742.619 60.9844 741.734 59.8125 741.271 58.4121C740.803 59.9004 739.883 61.1602 738.688 61.7812L737.996 60.8789C739.607 60.1055 740.697 58.0898 740.703 56.168V54.375H741.816V56.168ZM745.238 63.9961V53.4961H746.352V57.6797H748.039V58.6289H746.352V63.9961H745.238ZM756.793 53.4961V56.3438H758.316V57.2812H756.793V60.2344H755.68V53.4961H756.793ZM748.555 55.5V54.6211H751.133V53.4141H752.246V54.6211H754.812V55.5H748.555ZM749.129 57.8555C749.123 56.7246 750.154 55.9863 751.684 55.9805C753.195 55.9863 754.227 56.7246 754.227 57.8555C754.227 58.9805 753.195 59.7129 751.684 59.707C750.154 59.7129 749.123 58.9805 749.129 57.8555ZM749.961 62.1562C749.949 60.9961 751.273 60.3164 753.441 60.3164C755.58 60.3164 756.91 60.9961 756.91 62.1562C756.91 63.2988 755.58 63.9785 753.441 63.9727C751.273 63.9785 749.949 63.2988 749.961 62.1562ZM750.207 57.8555C750.195 58.4766 750.793 58.8633 751.684 58.8633C752.574 58.8633 753.172 58.4766 753.184 57.8555C753.172 57.2168 752.574 56.8125 751.684 56.8125C750.793 56.8125 750.195 57.2168 750.207 57.8555ZM751.062 62.1562C751.057 62.7715 751.93 63.1289 753.441 63.1289C754.93 63.1289 755.803 62.7715 755.809 62.1562C755.803 61.5176 754.93 61.1777 753.441 61.1719C751.93 61.1777 751.057 61.5176 751.062 62.1562ZM767.609 53.4961V64.0195H766.496V53.4961H767.609ZM759.277 57.9609C759.277 55.7168 760.408 54.2871 761.996 54.2812C763.555 54.2871 764.703 55.7168 764.703 57.9609C764.703 60.2285 763.555 61.6582 761.996 61.6523C760.408 61.6582 759.277 60.2285 759.277 57.9609ZM760.355 57.9609C760.35 59.6309 761.018 60.6562 761.996 60.6562C762.957 60.6562 763.625 59.6309 763.625 57.9609C763.625 56.3145 762.957 55.2832 761.996 55.2773C761.018 55.2832 760.35 56.3145 760.355 57.9609ZM780.969 53.4961V59.7422H779.855V57.082H777.898V56.168H779.855V53.4961H780.969ZM772.215 58.793C773.844 58.2246 774.846 56.8066 774.84 55.3594V55.125H772.566V54.2227H778.227V55.125H775.977V55.3477C775.971 56.6777 776.92 57.9727 778.508 58.5117L777.934 59.3906C776.756 58.9863 775.889 58.1426 775.432 57.1055C774.975 58.2773 774.055 59.2207 772.801 59.6836L772.215 58.793ZM773.902 62.0156C773.896 60.7676 775.244 60.041 777.453 60.0352C779.65 60.041 780.998 60.7676 781.004 62.0156C780.998 63.2637 779.65 63.9902 777.453 63.9961C775.244 63.9902 773.896 63.2637 773.902 62.0156ZM775.004 62.0156C774.998 62.7246 775.912 63.1289 777.453 63.1172C778.982 63.1289 779.896 62.7246 779.902 62.0156C779.896 61.3008 778.982 60.8965 777.453 60.9023C775.912 60.8965 774.998 61.3008 775.004 62.0156ZM786.207 55.1719C786.201 56.5488 787.174 57.832 788.738 58.3477L788.141 59.2266C786.992 58.8223 786.131 58.002 785.674 56.9648C785.217 58.1426 784.326 59.0684 783.102 59.5195L782.504 58.6289C784.145 58.0488 785.094 56.6484 785.105 55.0781V54.0469H786.207V55.1719ZM783.922 62.0273C783.922 60.7969 785.264 60.0762 787.449 60.082C789.605 60.0762 790.93 60.7969 790.93 62.0273C790.93 63.2695 789.605 63.9785 787.449 63.9727C785.264 63.9785 783.922 63.2695 783.922 62.0273ZM785.035 62.0273C785.029 62.7188 785.932 63.0938 787.449 63.1055C788.955 63.0938 789.846 62.7188 789.84 62.0273C789.846 61.3594 788.955 60.9609 787.449 60.9609C785.932 60.9609 785.029 61.3594 785.035 62.0273ZM789.723 59.8359V53.4961H790.836V56.1328H792.359V57.0703H790.836V59.8359H789.723ZM804.629 53.4961V59.2148H803.527V56.8945H801.559V55.9805H803.527V53.4961H804.629ZM795.898 58.5117C797.51 57.9492 798.518 56.5723 798.512 55.125V54.9844H796.238V54.082H801.898V54.9844H799.648V55.1367C799.643 56.4375 800.592 57.7559 802.18 58.2891L801.605 59.1562C800.422 58.7344 799.555 57.9023 799.098 56.8711C798.641 58.0254 797.721 58.9512 796.473 59.3906L795.898 58.5117ZM797.797 63.8672V59.6836H798.898V60.8906H803.527V59.6836H804.629V63.8672H797.797ZM798.898 62.9648H803.527V61.7578H798.898V62.9648ZM810.383 60.1172C809.926 60.1113 809.545 59.7422 809.551 59.2852C809.545 58.8281 809.926 58.4531 810.383 58.4531C810.834 58.4531 811.209 58.8281 811.215 59.2852C811.209 59.7422 810.834 60.1113 810.383 60.1172ZM813.547 60.1172C813.09 60.1113 812.709 59.7422 812.715 59.2852C812.709 58.8281 813.09 58.4531 813.547 58.4531C813.998 58.4531 814.373 58.8281 814.379 59.2852C814.373 59.7422 813.998 60.1113 813.547 60.1172ZM816.711 60.1172C816.254 60.1113 815.873 59.7422 815.879 59.2852C815.873 58.8281 816.254 58.4531 816.711 58.4531C817.162 58.4531 817.537 58.8281 817.543 59.2852C817.537 59.7422 817.162 60.1113 816.711 60.1172Z" fill="#191919" fill-opacity="0.5"/>
<path d="M817.883 20.8359C817.889 20.3789 818.258 19.998 818.715 20.0039C819.172 19.998 819.547 20.3789 819.547 20.8359C819.547 21.2871 819.172 21.6621 818.715 21.668C818.258 21.6621 817.889 21.2871 817.883 20.8359ZM817.883 24C817.889 23.543 818.258 23.1621 818.715 23.168C819.172 23.1621 819.547 23.543 819.547 24C819.547 24.4512 819.172 24.8262 818.715 24.832C818.258 24.8262 817.889 24.4512 817.883 24ZM817.883 27.1641C817.889 26.707 818.258 26.3262 818.715 26.332C819.172 26.3262 819.547 26.707 819.547 27.1641C819.547 27.6152 819.172 27.9902 818.715 27.9961C818.258 27.9902 817.889 27.6152 817.883 27.1641Z" fill="#191919" fill-opacity="0.5"/>
<path d="M689.46 19.3252C692.39 19.3252 694.228 20.2847 694.235 21.9033C694.228 23.4854 692.39 24.4302 689.46 24.4229C686.56 24.4302 684.685 23.4854 684.685 21.9033C684.685 20.2847 686.56 19.3252 689.46 19.3252ZM683.439 26.6348V25.3164H695.51V26.6348H683.439ZM684.86 32.1426V27.6895H694.045V32.1426H684.86ZM686.384 21.9033C686.369 22.7017 687.526 23.1558 689.46 23.1631C691.394 23.1558 692.551 22.7017 692.551 21.9033C692.551 21.061 691.394 20.5996 689.46 20.5996C687.526 20.5996 686.369 21.061 686.384 21.9033ZM686.472 30.8242H692.463V28.9785H686.472V30.8242ZM701.252 20.9658C701.245 22.7676 702.299 24.4155 704.372 25.0674L703.493 26.3418C702.05 25.8291 701.04 24.8623 700.476 23.6099C699.89 25.0527 698.784 26.188 697.18 26.752L696.315 25.4336C698.505 24.7158 699.604 22.9507 699.611 21.0391V19.7793H701.252V20.9658ZM698.513 29.7549C698.498 28.1436 700.219 27.1987 703.01 27.2061C705.815 27.1987 707.529 28.1436 707.536 29.7549C707.529 31.3662 705.815 32.2891 703.01 32.2891C700.219 32.2891 698.498 31.3662 698.513 29.7549ZM700.124 29.7549C700.117 30.5605 701.171 31.0073 703.01 31.0146C704.863 31.0073 705.91 30.5605 705.91 29.7549C705.91 28.9199 704.863 28.4731 703.01 28.4658C701.171 28.4731 700.117 28.9199 700.124 29.7549ZM703.229 22.958V21.625H705.866V19.0615H707.492V26.8545H705.866V22.958H703.229ZM720.09 22.5039V23.8076H716.208V25.3457H721.452V26.6494H709.367V25.3457H714.582V23.8076H710.92V19.2959H712.531V22.5039H720.09ZM710.744 29.0957V27.7773H719.958V32.3037H718.332V29.0957H710.744ZM728.352 19.3252C731.281 19.3252 733.12 20.2847 733.127 21.9033C733.12 23.4854 731.281 24.4302 728.352 24.4229C725.451 24.4302 723.576 23.4854 723.576 21.9033C723.576 20.2847 725.451 19.3252 728.352 19.3252ZM722.331 26.6348V25.3164H734.401V26.6348H722.331ZM723.752 32.1426V27.6895H732.937V32.1426H723.752ZM725.275 21.9033C725.261 22.7017 726.418 23.1558 728.352 23.1631C730.285 23.1558 731.442 22.7017 731.442 21.9033C731.442 21.061 730.285 20.5996 728.352 20.5996C726.418 20.5996 725.261 21.061 725.275 21.9033ZM725.363 30.8242H731.354V28.9785H725.363V30.8242ZM749.299 19.0615V22.1377H751.145V23.4854H749.299V26.7812H747.673V19.0615H749.299ZM739.309 26.0781V19.8379H740.92V21.6396H744.011V19.8379H745.622V26.0781H739.309ZM740.759 32.1133V27.4258H749.387V28.7295H742.385V30.8242H749.636V32.1133H740.759ZM740.92 24.7891H744.011V22.8994H740.92V24.7891ZM762.878 19.0615V32.3037H761.237V19.0615H762.878ZM751.906 28.6562C755.378 27.0083 756.975 24.7671 757.268 21.7568H752.58V20.4678H758.923C758.923 24.4082 757.392 27.7554 752.756 29.96L751.906 28.6562Z" fill="#191919"/>
<g filter="url(#filter7_d_1632_124)">
<rect x="227.996" y="270" width="160" height="74" rx="10" fill="#EFEFFF"/>
</g>
<path d="M237.465 326.207C237.459 324.754 238.695 324.379 239.844 324.297C240.266 324.273 241.221 324.221 241.514 324.209L241.508 323.699C241.514 322.979 241.068 322.562 240.219 322.562C239.48 322.562 239.035 322.902 238.906 323.371H237.664C237.775 322.316 238.76 321.555 240.266 321.555C241.279 321.555 242.756 321.924 242.762 323.77V328H241.543V327.133H241.496C241.25 327.607 240.664 328.141 239.609 328.141C238.402 328.141 237.459 327.449 237.465 326.207ZM238.684 326.219C238.684 326.828 239.188 327.139 239.891 327.145C240.91 327.139 241.52 326.459 241.52 325.703L241.514 325.123C241.227 325.141 240.318 325.205 240.02 325.223C239.199 325.281 238.684 325.592 238.684 326.219ZM244.273 328V321.637H245.48V322.645H245.551C245.785 321.965 246.424 321.537 247.168 321.543C247.32 321.537 247.566 321.555 247.695 321.566V322.762C247.59 322.738 247.297 322.686 247.039 322.691C246.172 322.686 245.527 323.289 245.527 324.121V328H244.273ZM248.633 328V321.637H249.84V322.645H249.91C250.145 321.965 250.783 321.537 251.527 321.543C251.68 321.537 251.926 321.555 252.055 321.566V322.762C251.949 322.738 251.656 322.686 251.398 322.691C250.531 322.686 249.887 323.289 249.887 324.121V328H248.633ZM255.523 328.129C253.648 328.129 252.494 326.834 252.5 324.859C252.494 322.902 253.666 321.555 255.441 321.555C256.889 321.555 258.266 322.451 258.266 324.754V325.199H253.742C253.777 326.412 254.492 327.098 255.535 327.098C256.244 327.098 256.707 326.793 256.918 326.406H258.184C257.902 327.438 256.924 328.129 255.523 328.129ZM253.748 324.262H257.035C257.035 323.295 256.408 322.58 255.453 322.586C254.451 322.58 253.801 323.365 253.748 324.262ZM262.203 328.129C260.398 328.129 259.221 326.816 259.227 324.848C259.221 322.867 260.398 321.555 262.203 321.555C263.996 321.555 265.168 322.867 265.168 324.848C265.168 326.816 263.996 328.129 262.203 328.129ZM260.48 324.848C260.48 326.061 261.037 327.086 262.203 327.086C263.352 327.086 263.902 326.061 263.902 324.848C263.902 323.629 263.352 322.592 262.203 322.586C261.037 322.592 260.48 323.629 260.48 324.848ZM267.219 328.082C266.762 328.076 266.381 327.707 266.387 327.25C266.381 326.793 266.762 326.418 267.219 326.418C267.67 326.418 268.045 326.793 268.051 327.25C268.045 327.707 267.67 328.076 267.219 328.082ZM272.258 328.129C270.4 328.129 269.275 326.764 269.281 324.848C269.275 322.908 270.441 321.555 272.234 321.555C273.688 321.555 274.736 322.41 274.871 323.699H273.652C273.523 323.102 273.049 322.604 272.258 322.598C271.227 322.604 270.535 323.459 270.535 324.812C270.535 326.207 271.209 327.068 272.258 327.062C272.967 327.068 273.494 326.67 273.652 325.984H274.871C274.736 327.221 273.758 328.129 272.258 328.129ZM278.75 328.129C276.945 328.129 275.768 326.816 275.773 324.848C275.768 322.867 276.945 321.555 278.75 321.555C280.543 321.555 281.715 322.867 281.715 324.848C281.715 326.816 280.543 328.129 278.75 328.129ZM277.027 324.848C277.027 326.061 277.584 327.086 278.75 327.086C279.898 327.086 280.449 326.061 280.449 324.848C280.449 323.629 279.898 322.592 278.75 322.586C277.584 322.592 277.027 323.629 277.027 324.848ZM282.945 328V321.637H284.152V322.68H284.223C284.492 321.971 285.119 321.555 285.957 321.555C286.807 321.555 287.398 321.971 287.668 322.68H287.738C288.037 321.994 288.729 321.555 289.648 321.555C290.797 321.555 291.611 322.275 291.617 323.734V328H290.363V323.852C290.363 322.99 289.824 322.633 289.168 322.633C288.365 322.633 287.902 323.184 287.902 323.945V328H286.66V323.781C286.66 323.084 286.186 322.633 285.5 322.633C284.797 322.633 284.199 323.219 284.199 324.074V328H282.945Z" fill="#191919" fill-opacity="0.5"/>
<path d="M371.879 285.836C371.885 285.379 372.254 284.998 372.711 285.004C373.168 284.998 373.543 285.379 373.543 285.836C373.543 286.287 373.168 286.662 372.711 286.668C372.254 286.662 371.885 286.287 371.879 285.836ZM371.879 289C371.885 288.543 372.254 288.162 372.711 288.168C373.168 288.162 373.543 288.543 373.543 289C373.543 289.451 373.168 289.826 372.711 289.832C372.254 289.826 371.885 289.451 371.879 289ZM371.879 292.164C371.885 291.707 372.254 291.326 372.711 291.332C373.168 291.326 373.543 291.707 373.543 292.164C373.543 292.615 373.168 292.99 372.711 292.996C372.254 292.99 371.885 292.615 371.879 292.164Z" fill="#191919" fill-opacity="0.5"/>
<path d="M248.861 284.062V292.221H247.294V284.062H248.861ZM237.348 289.042C239.12 289.049 242.042 289.013 244.203 288.676L244.306 289.774C243.493 289.95 242.606 290.067 241.713 290.141V292.162H240.146V290.236C239.164 290.272 238.241 290.28 237.509 290.272L237.348 289.042ZM237.948 286.493C237.948 285.277 239.12 284.53 240.863 284.53C242.584 284.53 243.764 285.277 243.764 286.493C243.764 287.694 242.584 288.471 240.863 288.471C239.12 288.471 237.948 287.694 237.948 286.493ZM239.428 286.493C239.435 287.042 239.97 287.321 240.863 287.328C241.735 287.321 242.306 287.042 242.313 286.493C242.306 285.951 241.735 285.658 240.863 285.658C239.97 285.658 239.435 285.951 239.428 286.493ZM239.574 297.143V292.66H241.186V293.671H247.235V292.66H248.861V297.143H239.574ZM241.186 295.868H247.235V294.916H241.186V295.868ZM242.709 291.649V290.536H244.818V284.296H246.356V292.206H244.818V291.649H242.709ZM261.43 284.076V292.147H259.789V284.076H261.43ZM251.073 286.2V284.867H257.182V288.749H252.699V290.17C254.962 290.163 256.581 290.089 258.471 289.804L258.676 291.107C256.588 291.452 254.794 291.51 252.23 291.503H251.103V287.533H255.57V286.2H251.073ZM252.45 294.843C252.443 293.275 254.157 292.382 256.977 292.382C259.782 292.382 261.503 293.275 261.503 294.843C261.503 296.381 259.782 297.289 256.977 297.289C254.157 297.289 252.443 296.381 252.45 294.843ZM254.062 294.843C254.062 295.604 255.102 296.007 256.977 296.015C258.837 296.007 259.87 295.604 259.877 294.843C259.87 294.074 258.837 293.656 256.977 293.656C255.102 293.656 254.062 294.074 254.062 294.843ZM274.101 285.292V286.874C274.101 288.8 274.101 290.617 273.515 293.422L271.889 293.275C272.16 292.118 272.306 291.1 272.394 290.163L264.594 290.565L264.374 289.247L272.467 288.939C272.497 288.229 272.504 287.548 272.504 286.874V286.61H264.77V285.292H274.101ZM263.363 295.619V294.286H275.434V295.619H263.363ZM281.952 284.647V286.332H285.043V284.647H286.654V290.419H280.341V284.647H281.952ZM281.674 292.646V291.371H290.331V294.843H283.3V295.897H290.741V297.187H281.688V293.656H288.705V292.646H281.674ZM281.952 289.13H285.043V287.562H281.952V289.13ZM288.705 290.844V284.062H290.331V286.742H292.177V288.061H290.331V290.844H288.705ZM299.677 288.734V290.463H304.921V291.767H292.851V290.463H298.065V288.734H299.677ZM293.51 288.207C296.242 287.863 298.036 286.361 298.036 284.779V284.281H299.691V284.779C299.691 286.398 301.471 287.863 304.232 288.207L303.603 289.481C301.435 289.152 299.699 288.17 298.856 286.779C298.007 288.163 296.278 289.152 294.096 289.481L293.51 288.207ZM294.257 294.96C294.257 293.473 295.978 292.624 298.871 292.631C301.742 292.624 303.449 293.473 303.456 294.96C303.449 296.461 301.742 297.289 298.871 297.289C295.978 297.289 294.257 296.461 294.257 294.96ZM295.912 294.96C295.905 295.685 296.923 296.059 298.871 296.059C300.783 296.059 301.815 295.685 301.83 294.96C301.815 294.235 300.783 293.876 298.871 293.876C296.923 293.876 295.905 294.235 295.912 294.96Z" fill="#191919"/>
<g filter="url(#filter8_d_1632_124)">
<rect x="674" y="403" width="160" height="74" rx="10" fill="white" fill-opacity="0.8" shape-rendering="crispEdges"/>
</g>
<path d="M692.037 451.484V454.625H693.561V455.562H692.037V459.207H690.924V451.484H692.037ZM683.951 454.824C683.939 453.295 685.158 452.217 686.74 452.211C688.328 452.217 689.529 453.295 689.541 454.824C689.529 456.354 688.328 457.443 686.74 457.438C685.158 457.443 683.939 456.354 683.951 454.824ZM685.041 454.824C685.029 455.803 685.779 456.465 686.74 456.465C687.713 456.465 688.445 455.803 688.451 454.824C688.445 453.846 687.713 453.184 686.74 453.184C685.779 453.184 685.029 453.846 685.041 454.824ZM685.381 461.773V458.398H686.494V460.871H692.482V461.773H685.381ZM695.904 452.105V456.348C697.598 456.342 698.816 456.26 700.193 455.984L700.322 456.887C698.822 457.191 697.498 457.273 695.6 457.262H694.779V452.105H695.904ZM695.846 460.004C695.84 458.738 697.188 457.994 699.396 457.988C701.594 457.994 702.941 458.738 702.947 460.004C702.941 461.258 701.594 461.99 699.396 461.996C697.188 461.99 695.84 461.258 695.846 460.004ZM696.947 460.004C696.941 460.701 697.855 461.105 699.396 461.105C700.926 461.105 701.84 460.701 701.846 460.004C701.84 459.283 700.926 458.873 699.396 458.867C697.855 458.873 696.941 459.283 696.947 460.004ZM698.939 455.352V454.496H701.799V453.512H698.939V452.645H701.799V451.496H702.912V457.895H701.799V455.352H698.939ZM712.709 451.496V455.75H714.396V456.676H712.709V461.996H711.607V451.496H712.709ZM704.471 454.051V453.137H707.061V451.637H708.174V453.137H710.693V454.051H704.471ZM705.01 457.262C705.01 455.832 706.111 454.824 707.623 454.824C709.129 454.824 710.23 455.832 710.236 457.262C710.23 458.703 709.129 459.705 707.623 459.711C706.111 459.705 705.01 458.703 705.01 457.262ZM706.076 457.262C706.07 458.176 706.727 458.785 707.623 458.773C708.514 458.785 709.164 458.176 709.17 457.262C709.164 456.365 708.514 455.744 707.623 455.738C706.727 455.744 706.07 456.365 706.076 457.262ZM718.1 454.367C718.1 456.043 718.803 457.83 720.209 458.691L719.588 459.547C718.604 458.955 717.941 457.906 717.578 456.693C717.197 458.023 716.471 459.16 715.451 459.781L714.76 458.949C716.242 458.059 717.027 456.201 717.021 454.414V452.457H718.1V454.367ZM719.072 456.113V455.188H720.701V451.695H721.756V461.48H720.701V456.113H719.072ZM722.869 461.996V451.496H723.936V461.996H722.869ZM734.881 459.758V460.684H725.271V459.758H727.568V457.016C726.707 456.541 726.18 455.791 726.186 454.848C726.18 453.195 727.803 452.111 730.053 452.105C732.309 452.111 733.932 453.195 733.932 454.848C733.932 455.773 733.428 456.518 732.584 456.992V459.758H734.881ZM727.264 454.848C727.264 455.973 728.406 456.705 730.053 456.711C731.688 456.705 732.848 455.973 732.854 454.848C732.848 453.717 731.688 452.996 730.053 452.996C728.406 452.996 727.264 453.717 727.264 454.848ZM728.67 459.758H731.459V457.426C731.031 457.525 730.557 457.578 730.053 457.578C729.561 457.578 729.092 457.525 728.67 457.426V459.758ZM736.838 461.082C736.381 461.076 736 460.707 736.006 460.25C736 459.793 736.381 459.418 736.838 459.418C737.289 459.418 737.664 459.793 737.67 460.25C737.664 460.707 737.289 461.076 736.838 461.082ZM744.408 452.281C745.979 452.287 747.098 453.717 747.104 455.961C747.098 458.229 745.979 459.658 744.408 459.652C742.838 459.658 741.719 458.229 741.725 455.961C741.719 453.717 742.838 452.287 744.408 452.281ZM742.791 455.961C742.785 457.631 743.453 458.656 744.408 458.656C745.381 458.656 746.037 457.631 746.037 455.961C746.037 454.314 745.381 453.283 744.408 453.277C743.453 453.283 742.785 454.314 742.791 455.961ZM748.662 461.996V451.496H749.775V455.609H751.463V456.547H749.775V461.996H748.662ZM756.033 452.621V456.359H753.373V458.516C754.516 458.51 755.605 458.463 756.9 458.234L756.994 459.148C755.535 459.412 754.34 459.441 753.021 459.453H752.295V455.469H754.967V453.523H752.283V452.621H756.033ZM756.525 456.113V455.211H757.768V451.73H758.822V461.457H757.768V456.113H756.525ZM759.912 461.996V451.496H760.979V461.996H759.912ZM767.119 452.129C769.363 452.135 770.998 453.242 770.998 454.918C770.998 456.488 769.627 457.537 767.67 457.695V459.758H771.947V460.684H762.338V459.758H766.568V457.695C764.623 457.537 763.246 456.488 763.252 454.918C763.246 453.242 764.887 452.135 767.119 452.129ZM764.33 454.918C764.33 456.096 765.502 456.828 767.119 456.84C768.748 456.828 769.914 456.096 769.92 454.918C769.914 453.781 768.748 453.031 767.119 453.043C765.502 453.031 764.33 453.781 764.33 454.918ZM781.416 451.496V457.133H780.303V451.496H781.416ZM772.92 454.414C772.926 452.973 774.109 451.971 775.721 451.977C777.326 451.971 778.51 452.973 778.51 454.414C778.51 455.85 777.326 456.852 775.721 456.84C774.109 456.852 772.926 455.85 772.92 454.414ZM774.01 454.414C774.004 455.322 774.725 455.926 775.721 455.926C776.705 455.926 777.42 455.322 777.42 454.414C777.42 453.518 776.705 452.908 775.721 452.914C774.725 452.908 774.004 453.518 774.01 454.414ZM774.549 461.867V457.637H775.639V458.82H780.314V457.637H781.416V461.867H774.549ZM775.639 460.953H780.314V459.699H775.639V460.953ZM791.799 451.496V461.996H790.686V451.496H791.799ZM783.725 459.324V452.516H784.826V458.363C786.361 458.357 787.973 458.223 789.654 457.883L789.807 458.82C787.949 459.201 786.262 459.33 784.604 459.324H783.725ZM801.631 451.496V455.562H803.318V456.477H801.631V462.02H800.518V451.496H801.631ZM793.896 459.406V452.504H798.807V453.406H795.01V458.48C796.773 458.475 798.092 458.398 799.592 458.129L799.732 459.066C798.086 459.359 796.691 459.412 794.74 459.406H793.896ZM805.018 461.082C804.561 461.076 804.18 460.707 804.186 460.25C804.18 459.793 804.561 459.418 805.018 459.418C805.469 459.418 805.844 459.793 805.85 460.25C805.844 460.707 805.469 461.076 805.018 461.082Z" fill="#191919" fill-opacity="0.5"/>
<path d="M817.883 418.836C817.889 418.379 818.258 417.998 818.715 418.004C819.172 417.998 819.547 418.379 819.547 418.836C819.547 419.287 819.172 419.662 818.715 419.668C818.258 419.662 817.889 419.287 817.883 418.836ZM817.883 422C817.889 421.543 818.258 421.162 818.715 421.168C819.172 421.162 819.547 421.543 819.547 422C819.547 422.451 819.172 422.826 818.715 422.832C818.258 422.826 817.889 422.451 817.883 422ZM817.883 425.164C817.889 424.707 818.258 424.326 818.715 424.332C819.172 424.326 819.547 424.707 819.547 425.164C819.547 425.615 819.172 425.99 818.715 425.996C818.258 425.99 817.889 425.615 817.883 425.164Z" fill="#191919" fill-opacity="0.5"/>
<path d="M693.884 417.062V420.943H695.729V422.291H693.884V426.744H692.258V417.062H693.884ZM683.586 421.28C683.579 419.325 685.146 417.948 687.16 417.94C689.174 417.948 690.72 419.325 690.734 421.28C690.72 423.207 689.174 424.605 687.16 424.605C685.146 424.605 683.579 423.207 683.586 421.28ZM685.183 421.28C685.175 422.423 686.054 423.177 687.16 423.17C688.281 423.177 689.13 422.423 689.138 421.28C689.13 420.108 688.281 419.361 687.16 419.361C686.054 419.361 685.175 420.108 685.183 421.28ZM685.402 430.04V425.733H687.028V428.722H694.411V430.04H685.402ZM707.771 417.062V430.304H706.203V423.609H704.738V429.63H703.215V417.311H704.738V422.276H706.203V417.062H707.771ZM696.975 427.008V418.585H698.615V425.572C699.758 425.55 701.003 425.448 702.395 425.177L702.556 426.598C700.769 426.913 699.252 427.008 697.854 427.008H696.975ZM720.69 417.062V426.935H719.138V417.062H720.69ZM709.88 424.518V418.336H715.095V420.665H716.516V417.296H718.054V426.539H716.516V421.998H715.095V424.518H709.88ZM711.418 423.258H713.586V419.61H711.418V423.258ZM711.828 430.04V425.748H713.454V428.722H721.057V430.04H711.828ZM733.098 424.005V425.294H723.811V418.102H732.98V419.42H725.466V421.017H732.673V422.291H725.466V424.005H733.098ZM722.331 428.692V427.359H734.431V428.692H722.331Z" fill="#191919"/>
<circle cx="642" cy="558" r="14.5" stroke="#0D42E5"/>
<path d="M650 557.5C650 557.739 649.905 557.968 649.736 558.136C649.568 558.305 649.339 558.4 649.1 558.4H643.4V564.1C643.4 564.339 643.305 564.568 643.136 564.736C642.968 564.905 642.739 565 642.5 565C642.261 565 642.032 564.905 641.864 564.736C641.695 564.568 641.6 564.339 641.6 564.1V558.4H635.9C635.661 558.4 635.432 558.305 635.264 558.136C635.095 557.968 635 557.739 635 557.5C635 557.261 635.095 557.032 635.264 556.864C635.432 556.695 635.661 556.6 635.9 556.6H641.6V550.9C641.6 550.661 641.695 550.432 641.864 550.264C642.032 550.095 642.261 550 642.5 550C642.739 550 642.968 550.095 643.136 550.264C643.305 550.432 643.4 550.661 643.4 550.9V556.6H649.1C649.339 556.6 649.568 556.695 649.736 556.864C649.905 557.032 650 557.261 650 557.5Z" fill="#0D42E5"/>
<circle cx="419" cy="160" r="14.5" stroke="#0D42E5"/>
<path d="M427 159.5C427 159.739 426.905 159.968 426.736 160.136C426.568 160.305 426.339 160.4 426.1 160.4H420.4V166.1C420.4 166.339 420.305 166.568 420.136 166.736C419.968 166.905 419.739 167 419.5 167C419.261 167 419.032 166.905 418.864 166.736C418.695 166.568 418.6 166.339 418.6 166.1V160.4H412.9C412.661 160.4 412.432 160.305 412.264 160.136C412.095 159.968 412 159.739 412 159.5C412 159.261 412.095 159.032 412.264 158.864C412.432 158.695 412.661 158.6 412.9 158.6H418.6V152.9C418.6 152.661 418.695 152.432 418.864 152.264C419.032 152.095 419.261 152 419.5 152C419.739 152 419.968 152.095 420.136 152.264C420.305 152.432 420.4 152.661 420.4 152.9V158.6H426.1C426.339 158.6 426.568 158.695 426.736 158.864C426.905 159.032 427 159.261 427 159.5Z" fill="#0D42E5"/>
<g filter="url(#filter9_d_1632_124)">
<rect x="897" y="403" width="160" height="74" rx="10" fill="white" fill-opacity="0.8" shape-rendering="crispEdges"/>
<rect x="897.5" y="403.5" width="159" height="73" rx="9.5" stroke="#0D42E5" stroke-opacity="0.5" shape-rendering="crispEdges"/>
</g>
<g filter="url(#filter10_d_1632_124)">
<rect x="904" y="437" width="147" height="30" rx="15" fill="#EBEBF3"/>
</g>
<path d="M925.129 447.328C925.123 448.658 926.617 450.012 928.879 450.305L928.363 451.359C926.564 451.09 925.135 450.205 924.443 449.01C923.752 450.205 922.328 451.09 920.547 451.359L920.031 450.305C922.27 450.012 923.758 448.67 923.758 447.328V446.789H925.129V447.328ZM919.609 453.352V452.273H929.266V453.352H925.059V457.043H923.77V453.352H919.609ZM939.039 446.449V453.105H937.797V450.223H936.766V452.754H935.547V446.66H936.766V449.168H937.797V446.449H939.039ZM929.922 448.617V447.598H931.926V446.543H933.215V447.598H935.195V448.617H929.922ZM930.297 450.879C930.285 449.777 931.246 449.045 932.57 449.051C933.918 449.045 934.867 449.777 934.879 450.879C934.867 451.98 933.918 452.707 932.57 452.707C931.246 452.707 930.285 451.98 930.297 450.879ZM931.457 450.879C931.457 451.424 931.908 451.77 932.57 451.77C933.238 451.77 933.695 451.424 933.695 450.879C933.695 450.334 933.238 449.988 932.57 449.988C931.908 449.988 931.457 450.334 931.457 450.879ZM931.832 455.145C931.826 453.926 933.197 453.24 935.465 453.234C937.727 453.24 939.092 453.926 939.098 455.145C939.092 456.34 937.727 457.031 935.465 457.031C933.197 457.031 931.826 456.34 931.832 455.145ZM933.133 455.145C933.127 455.725 933.953 456.041 935.465 456.035C936.971 456.041 937.779 455.725 937.785 455.145C937.779 454.529 936.971 454.219 935.465 454.23C933.953 454.219 933.127 454.529 933.133 455.145ZM950.02 451.523V452.566H940.352V451.523H944.547V450.516H941.535V446.93H948.848V447.949H942.836V449.484H948.906V450.516H945.824V451.523H950.02ZM941.477 455.109C941.477 453.867 942.865 453.17 945.168 453.176C947.453 453.17 948.83 453.867 948.836 455.109C948.83 456.34 947.453 457.037 945.168 457.043C942.865 457.037 941.477 456.34 941.477 455.109ZM942.801 455.109C942.795 455.725 943.627 456.041 945.168 456.035C946.686 456.041 947.523 455.725 947.535 455.109C947.523 454.5 946.686 454.172 945.168 454.172C943.627 454.172 942.795 454.5 942.801 455.109ZM954.52 448.289C954.52 449.596 955.357 450.879 957.027 451.43L956.371 452.438C955.182 452.039 954.344 451.248 953.881 450.258C953.412 451.342 952.533 452.203 951.297 452.625L950.605 451.617C952.311 451.049 953.207 449.678 953.207 448.289V448.16H950.969V447.117H956.723V448.16H954.52V448.289ZM952.023 454.371V453.328H959.078V457.043H957.777V454.371H952.023ZM957.777 452.836V446.449H959.078V449.098H960.555V450.188H959.078V452.836H957.777Z" fill="#191919"/>
<path d="M1027.85 454.858L1034.6 449.767C1034.71 449.682 1034.78 449.569 1034.78 449.451C1034.78 449.334 1034.71 449.221 1034.6 449.136L1034.59 449.131C1034.54 449.089 1034.47 449.057 1034.4 449.034C1034.33 449.012 1034.25 449 1034.17 449C1034.09 449 1034.01 449.012 1033.94 449.034C1033.87 449.057 1033.8 449.089 1033.75 449.131C1029.98 451.968 1024.79 451.969 1021.03 449.131C1020.98 449.089 1020.91 449.057 1020.84 449.034C1020.77 449.012 1020.69 449 1020.61 449C1020.53 449 1020.45 449.012 1020.38 449.034C1020.3 449.057 1020.24 449.089 1020.18 449.131L1020.18 449.136C1020.06 449.221 1020 449.334 1020 449.451C1020 449.569 1020.06 449.682 1020.18 449.767L1026.93 454.858C1026.99 454.903 1027.06 454.939 1027.14 454.963C1027.22 454.987 1027.3 455 1027.39 455C1027.48 455 1027.56 454.987 1027.64 454.963C1027.72 454.939 1027.79 454.903 1027.85 454.858Z" fill="#0D42E5"/>
<path d="M911.846 419.285H910.955L911.025 417.539L909.549 418.477L909.104 417.703L910.662 416.906L909.104 416.098L909.549 415.324L911.025 416.262L910.955 414.516H911.846L911.764 416.262L913.24 415.324L913.697 416.098L912.139 416.906L913.697 417.703L913.24 418.477L911.764 417.539L911.846 419.285ZM927.268 418.605V419.496H917.682V418.605H921.936V417.492H918.877V413.977H926.084V414.855H919.979V416.602H926.154V417.492H923.014V418.605H927.268ZM918.818 422.086C918.818 420.867 920.184 420.182 922.463 420.176C924.725 420.182 926.078 420.867 926.084 422.086C926.078 423.305 924.725 423.99 922.463 423.996C920.184 423.99 918.818 423.305 918.818 422.086ZM919.943 422.086C919.938 422.76 920.857 423.129 922.463 423.117C924.045 423.129 924.971 422.76 924.971 422.086C924.971 421.424 924.045 421.043 922.463 421.043C920.857 421.043 919.938 421.424 919.943 422.086ZM931.721 415.383C931.715 416.725 932.646 417.996 934.252 418.535L933.689 419.402C932.5 418.992 931.627 418.172 931.17 417.141C930.713 418.271 929.799 419.168 928.568 419.602L927.971 418.734C929.611 418.178 930.602 416.818 930.607 415.371V415.09H928.299V414.188H933.982V415.09H931.721V415.383ZM929.365 421.242V420.34H936.303V423.996H935.189V421.242H929.365ZM935.189 419.824V413.496H936.303V416.191H937.826V417.129H936.303V419.824H935.189ZM943.205 413.672C945.572 413.666 946.949 414.305 946.955 415.477C946.949 416.654 945.572 417.293 943.205 417.293C940.838 417.293 939.449 416.654 939.455 415.477C939.449 414.305 940.838 413.666 943.205 413.672ZM938.424 418.828V417.938H947.998V418.828H938.424ZM939.572 420.469V419.637H946.791V422.098H940.674V423.035H947.084V423.891H939.584V421.289H945.689V420.469H939.572ZM940.615 415.477C940.609 416.127 941.535 416.461 943.205 416.461C944.887 416.461 945.812 416.127 945.807 415.477C945.812 414.855 944.887 414.492 943.205 414.492C941.535 414.492 940.609 414.855 940.615 415.477ZM955.428 415.418C955.434 416.842 956.377 418.213 957.959 418.77L957.35 419.637C956.207 419.197 955.346 418.33 954.895 417.246C954.443 418.453 953.547 419.408 952.311 419.883L951.713 419.004C953.348 418.424 954.32 416.965 954.326 415.383V414.141H955.428V415.418ZM953.623 423.773V420.457H954.748V422.871H960.713V423.773H953.623ZM957.15 416.812V415.898H959.365V413.508H960.479V421.336H959.365V416.812H957.15ZM966.631 414.246V415.148H963.596V416.32H966.514V417.176H963.596V418.453C965.002 418.441 965.922 418.389 967.006 418.184L967.111 419.098C965.881 419.326 964.879 419.373 963.209 419.367H962.529V414.246H966.631ZM963.912 421.289V420.387H971.049V423.996H969.947V421.289H963.912ZM967.662 419.801V413.695H968.705V416.18H969.994V413.508H971.049V419.883H969.994V417.082H968.705V419.801H967.662ZM977.658 415.23V416.133H972.443V415.23H974.506V413.801H975.607V415.23H977.658ZM972.783 419.18C972.777 417.768 973.738 416.766 975.057 416.766C976.387 416.766 977.336 417.768 977.342 419.18C977.336 420.615 976.387 421.623 975.057 421.617C973.738 421.623 972.777 420.615 972.783 419.18ZM973.768 419.18C973.762 420.07 974.301 420.668 975.057 420.668C975.812 420.668 976.357 420.07 976.357 419.18C976.357 418.307 975.812 417.697 975.057 417.691C974.301 417.697 973.762 418.307 973.768 419.18ZM978.139 423.504V413.73H979.193V417.867H980.4V413.496H981.455V423.996H980.4V418.781H979.193V423.504H978.139ZM992.412 419.414V420.316H988.146V423.984H987.057V420.316H982.838V419.414H992.412ZM983.377 417.738C985.334 417.469 986.963 416.303 986.998 415.008H983.729V414.117H991.51V415.008H988.264C988.281 416.303 989.898 417.469 991.885 417.738L991.475 418.617C989.752 418.348 988.264 417.498 987.625 416.303C986.98 417.498 985.498 418.348 983.799 418.617L983.377 417.738ZM996.408 416.367C996.408 418.043 997.111 419.83 998.518 420.691L997.896 421.547C996.912 420.955 996.25 419.906 995.887 418.693C995.506 420.023 994.779 421.16 993.76 421.781L993.068 420.949C994.551 420.059 995.336 418.201 995.33 416.414V414.457H996.408V416.367ZM997.381 418.113V417.188H999.01V413.695H1000.06V423.48H999.01V418.113H997.381ZM1001.18 423.996V413.496H1002.24V423.996H1001.18ZM1013.19 421.758V422.684H1003.58V421.758H1005.88V419.016C1005.02 418.541 1004.49 417.791 1004.49 416.848C1004.49 415.195 1006.11 414.111 1008.36 414.105C1010.62 414.111 1012.24 415.195 1012.24 416.848C1012.24 417.773 1011.74 418.518 1010.89 418.992V421.758H1013.19ZM1005.57 416.848C1005.57 417.973 1006.71 418.705 1008.36 418.711C1010 418.705 1011.16 417.973 1011.16 416.848C1011.16 415.717 1010 414.996 1008.36 414.996C1006.71 414.996 1005.57 415.717 1005.57 416.848ZM1006.98 421.758H1009.77V419.426C1009.34 419.525 1008.87 419.578 1008.36 419.578C1007.87 419.578 1007.4 419.525 1006.98 419.426V421.758Z" fill="#191919" fill-opacity="0.5"/>
<defs>
<filter id="filter0_d_1632_124" x="0" y="0" width="180" height="94" filterUnits="userSpaceOnUse" color-interpolation-filters="sRGB">
<feFlood flood-opacity="0" result="BackgroundImageFix"/>
<feColorMatrix in="SourceAlpha" type="matrix" values="0 0 0 0 0 0 0 0 0 0 0 0 0 0 0 0 0 0 127 0" result="hardAlpha"/>
<feOffset dx="5" dy="5"/>
<feGaussianBlur stdDeviation="5"/>
<feComposite in2="hardAlpha" operator="out"/>
<feColorMatrix type="matrix" values="0 0 0 0 0 0 0 0 0 0 0 0 0 0 0 0 0 0 0.03 0"/>
<feBlend mode="normal" in2="BackgroundImageFix" result="effect1_dropShadow_1632_124"/>
<feBlend mode="normal" in="SourceGraphic" in2="effect1_dropShadow_1632_124" result="shape"/>
</filter>
<filter id="filter1_d_1632_124" x="223" y="0" width="180" height="94" filterUnits="userSpaceOnUse" color-interpolation-filters="sRGB">
<feFlood flood-opacity="0" result="BackgroundImageFix"/>
<feColorMatrix in="SourceAlpha" type="matrix" values="0 0 0 0 0 0 0 0 0 0 0 0 0 0 0 0 0 0 127 0" result="hardAlpha"/>
<feOffset dx="5" dy="5"/>
<feGaussianBlur stdDeviation="5"/>
<feComposite in2="hardAlpha" operator="out"/>
<feColorMatrix type="matrix" values="0 0 0 0 0 0 0 0 0 0 0 0 0 0 0 0 0 0 0.03 0"/>
<feBlend mode="normal" in2="BackgroundImageFix" result="effect1_dropShadow_1632_124"/>
<feBlend mode="normal" in="SourceGraphic" in2="effect1_dropShadow_1632_124" result="shape"/>
</filter>
<filter id="filter2_d_1632_124" x="446" y="0" width="180" height="94" filterUnits="userSpaceOnUse" color-interpolation-filters="sRGB">
<feFlood flood-opacity="0" result="BackgroundImageFix"/>
<feColorMatrix in="SourceAlpha" type="matrix" values="0 0 0 0 0 0 0 0 0 0 0 0 0 0 0 0 0 0 127 0" result="hardAlpha"/>
<feOffset dx="5" dy="5"/>
<feGaussianBlur stdDeviation="5"/>
<feComposite in2="hardAlpha" operator="out"/>
<feColorMatrix type="matrix" values="0 0 0 0 0 0 0 0 0 0 0 0 0 0 0 0 0 0 0.03 0"/>
<feBlend mode="normal" in2="BackgroundImageFix" result="effect1_dropShadow_1632_124"/>
<feBlend mode="normal" in="SourceGraphic" in2="effect1_dropShadow_1632_124" result="shape"/>
</filter>
<filter id="filter3_d_1632_124" x="223" y="132" width="180" height="94" filterUnits="userSpaceOnUse" color-interpolation-filters="sRGB">
<feFlood flood-opacity="0" result="BackgroundImageFix"/>
<feColorMatrix in="SourceAlpha" type="matrix" values="0 0 0 0 0 0 0 0 0 0 0 0 0 0 0 0 0 0 127 0" result="hardAlpha"/>
<feOffset dx="5" dy="5"/>
<feGaussianBlur stdDeviation="5"/>
<feComposite in2="hardAlpha" operator="out"/>
<feColorMatrix type="matrix" values="0 0 0 0 0 0 0 0 0 0 0 0 0 0 0 0 0 0 0.03 0"/>
<feBlend mode="normal" in2="BackgroundImageFix" result="effect1_dropShadow_1632_124"/>
<feBlend mode="normal" in="SourceGraphic" in2="effect1_dropShadow_1632_124" result="shape"/>
</filter>
<filter id="filter4_d_1632_124" x="669.004" y="132" width="180" height="94" filterUnits="userSpaceOnUse" color-interpolation-filters="sRGB">
<feFlood flood-opacity="0" result="BackgroundImageFix"/>
<feColorMatrix in="SourceAlpha" type="matrix" values="0 0 0 0 0 0 0 0 0 0 0 0 0 0 0 0 0 0 127 0" result="hardAlpha"/>
<feOffset dx="5" dy="5"/>
<feGaussianBlur stdDeviation="5"/>
<feComposite in2="hardAlpha" operator="out"/>
<feColorMatrix type="matrix" values="0 0 0 0 0 0 0 0 0 0 0 0 0 0 0 0 0 0 0.03 0"/>
<feBlend mode="normal" in2="BackgroundImageFix" result="effect1_dropShadow_1632_124"/>
<feBlend mode="normal" in="SourceGraphic" in2="effect1_dropShadow_1632_124" result="shape"/>
</filter>
<filter id="filter5_d_1632_124" x="669" y="265" width="180" height="94" filterUnits="userSpaceOnUse" color-interpolation-filters="sRGB">
<feFlood flood-opacity="0" result="BackgroundImageFix"/>
<feColorMatrix in="SourceAlpha" type="matrix" values="0 0 0 0 0 0 0 0 0 0 0 0 0 0 0 0 0 0 127 0" result="hardAlpha"/>
<feOffset dx="5" dy="5"/>
<feGaussianBlur stdDeviation="5"/>
<feComposite in2="hardAlpha" operator="out"/>
<feColorMatrix type="matrix" values="0 0 0 0 0 0 0 0 0 0 0 0 0 0 0 0 0 0 0.03 0"/>
<feBlend mode="normal" in2="BackgroundImageFix" result="effect1_dropShadow_1632_124"/>
<feBlend mode="normal" in="SourceGraphic" in2="effect1_dropShadow_1632_124" result="shape"/>
</filter>
<filter id="filter6_d_1632_124" x="669" y="0" width="180" height="94" filterUnits="userSpaceOnUse" color-interpolation-filters="sRGB">
<feFlood flood-opacity="0" result="BackgroundImageFix"/>
<feColorMatrix in="SourceAlpha" type="matrix" values="0 0 0 0 0 0 0 0 0 0 0 0 0 0 0 0 0 0 127 0" result="hardAlpha"/>
<feOffset dx="5" dy="5"/>
<feGaussianBlur stdDeviation="5"/>
<feComposite in2="hardAlpha" operator="out"/>
<feColorMatrix type="matrix" values="0 0 0 0 0 0 0 0 0 0 0 0 0 0 0 0 0 0 0.03 0"/>
<feBlend mode="normal" in2="BackgroundImageFix" result="effect1_dropShadow_1632_124"/>
<feBlend mode="normal" in="SourceGraphic" in2="effect1_dropShadow_1632_124" result="shape"/>
</filter>
<filter id="filter7_d_1632_124" x="222.996" y="265" width="180" height="94" filterUnits="userSpaceOnUse" color-interpolation-filters="sRGB">
<feFlood flood-opacity="0" result="BackgroundImageFix"/>
<feColorMatrix in="SourceAlpha" type="matrix" values="0 0 0 0 0 0 0 0 0 0 0 0 0 0 0 0 0 0 127 0" result="hardAlpha"/>
<feOffset dx="5" dy="5"/>
<feGaussianBlur stdDeviation="5"/>
<feComposite in2="hardAlpha" operator="out"/>
<feColorMatrix type="matrix" values="0 0 0 0 0 0 0 0 0 0 0 0 0 0 0 0 0 0 0.03 0"/>
<feBlend mode="normal" in2="BackgroundImageFix" result="effect1_dropShadow_1632_124"/>
<feBlend mode="normal" in="SourceGraphic" in2="effect1_dropShadow_1632_124" result="shape"/>
</filter>
<filter id="filter8_d_1632_124" x="669" y="398" width="180" height="94" filterUnits="userSpaceOnUse" color-interpolation-filters="sRGB">
<feFlood flood-opacity="0" result="BackgroundImageFix"/>
<feColorMatrix in="SourceAlpha" type="matrix" values="0 0 0 0 0 0 0 0 0 0 0 0 0 0 0 0 0 0 127 0" result="hardAlpha"/>
<feOffset dx="5" dy="5"/>
<feGaussianBlur stdDeviation="5"/>
<feComposite in2="hardAlpha" operator="out"/>
<feColorMatrix type="matrix" values="0 0 0 0 0 0 0 0 0 0 0 0 0 0 0 0 0 0 0.03 0"/>
<feBlend mode="normal" in2="BackgroundImageFix" result="effect1_dropShadow_1632_124"/>
<feBlend mode="normal" in="SourceGraphic" in2="effect1_dropShadow_1632_124" result="shape"/>
</filter>
<filter id="filter9_d_1632_124" x="892" y="398" width="180" height="94" filterUnits="userSpaceOnUse" color-interpolation-filters="sRGB">
<feFlood flood-opacity="0" result="BackgroundImageFix"/>
<feColorMatrix in="SourceAlpha" type="matrix" values="0 0 0 0 0 0 0 0 0 0 0 0 0 0 0 0 0 0 127 0" result="hardAlpha"/>
<feOffset dx="5" dy="5"/>
<feGaussianBlur stdDeviation="5"/>
<feComposite in2="hardAlpha" operator="out"/>
<feColorMatrix type="matrix" values="0 0 0 0 0 0 0 0 0 0 0 0 0 0 0 0 0 0 0.03 0"/>
<feBlend mode="normal" in2="BackgroundImageFix" result="effect1_dropShadow_1632_124"/>
<feBlend mode="normal" in="SourceGraphic" in2="effect1_dropShadow_1632_124" result="shape"/>
</filter>
<filter id="filter10_d_1632_124" x="899" y="432" width="167" height="50" filterUnits="userSpaceOnUse" color-interpolation-filters="sRGB">
<feFlood flood-opacity="0" result="BackgroundImageFix"/>
<feColorMatrix in="SourceAlpha" type="matrix" values="0 0 0 0 0 0 0 0 0 0 0 0 0 0 0 0 0 0 127 0" result="hardAlpha"/>
<feOffset dx="5" dy="5"/>
<feGaussianBlur stdDeviation="5"/>
<feComposite in2="hardAlpha" operator="out"/>
<feColorMatrix type="matrix" values="0 0 0 0 0 0 0 0 0 0 0 0 0 0 0 0 0 0 0.03 0"/>
<feBlend mode="normal" in2="BackgroundImageFix" result="effect1_dropShadow_1632_124"/>
<feBlend mode="normal" in="SourceGraphic" in2="effect1_dropShadow_1632_124" result="shape"/>
</filter>
</defs>
</svg>
