<svg width="8" height="15" viewBox="0 0 8 15" fill="none" xmlns="http://www.w3.org/2000/svg">
<path id="Vector" d="M0.204684 1.16312L6.21947 7.01909C6.35139 7.14686 6.42538 7.31934 6.42538 7.49907C6.42538 7.6788 6.35139 7.85128 6.21947 7.97905L0.205989 13.8363C0.07476 13.9651 0.00130493 14.1381 0.00130494 14.3181C0.00130495 14.4982 0.0747601 14.6711 0.205989 14.8C0.270398 14.8633 0.347381 14.9136 0.432401 14.9479C0.51742 14.9823 0.608756 15 0.701025 15C0.793294 15 0.88463 14.9823 0.96965 14.9479C1.05467 14.9136 1.13165 14.8633 1.19606 14.8L7.20955 8.94525C7.6047 8.55962 7.82609 8.04077 7.82609 7.50032C7.82609 6.95987 7.6047 6.44102 7.20955 6.05539L1.19606 0.200668C1.13163 0.137169 1.05457 0.0866928 0.969428 0.052226C0.884287 0.0177593 0.792799 9.1902e-07 0.700373 9.2306e-07C0.607946 9.271e-07 0.516457 0.0177593 0.431317 0.052226C0.346177 0.0866928 0.269114 0.137169 0.204684 0.200668C0.0734551 0.329541 -6.33707e-07 0.502464 -6.25837e-07 0.68252C-6.17966e-07 0.862576 0.0734551 1.0355 0.204684 1.16437" fill="#0D42E5"/>
</svg>
