<svg width="8" height="15" viewBox="0 0 8 15" fill="none" xmlns="http://www.w3.org/2000/svg">
<path id="Vector" d="M7.79531 13.8369L1.78052 7.98091C1.64861 7.85313 1.57462 7.68066 1.57462 7.50093C1.57462 7.3212 1.64861 7.14872 1.78052 7.02095L7.79401 1.16373C7.92524 1.03486 7.99869 0.861933 7.99869 0.681877C7.9987 0.501821 7.92524 0.328898 7.79401 0.200025C7.7296 0.136717 7.65262 0.0864042 7.5676 0.0520511C7.48258 0.0176981 7.39124 -2.66096e-08 7.29897 -3.06428e-08C7.20671 -3.4676e-08 7.11537 0.0176981 7.03035 0.0520511C6.94533 0.0864041 6.86835 0.136717 6.80394 0.200025L0.790451 6.05475C0.395301 6.44038 0.173912 6.95923 0.173912 7.49968C0.173912 8.04012 0.3953 8.55897 0.790451 8.94461L6.80394 14.7993C6.86837 14.8628 6.94543 14.9133 7.03057 14.9478C7.11571 14.9822 7.2072 15 7.29963 15C7.39205 15 7.48354 14.9822 7.56868 14.9478C7.65382 14.9133 7.73088 14.8628 7.79531 14.7993C7.92654 14.6705 8 14.4975 8 14.3175C8 14.1374 7.92654 13.9645 7.79531 13.8356" fill="#0D42E5"/>
</svg>
