<svg width="147" height="34" viewBox="0 0 147 34" fill="none" xmlns="http://www.w3.org/2000/svg">
<path d="M1.22227 32.875C0.422266 32.525 0.180599 31.9417 0.497266 31.125L12.8973 1.8C13.1639 1.11667 13.6556 0.774999 14.3723 0.774999H14.5223C15.2056 0.791665 15.6889 1.13333 15.9723 1.8L28.3723 31.125C28.7056 31.9417 28.4723 32.525 27.6723 32.875C26.8556 33.2083 26.2889 32.975 25.9723 32.175L22.6473 24.3H6.27227L2.94727 32.175C2.61393 32.975 2.03893 33.2083 1.22227 32.875ZM7.34727 21.675H21.5473L14.4473 4.925L7.34727 21.675ZM56.2602 33.05C55.8935 33.2667 55.5602 33.3417 55.2602 33.275C54.9602 33.2083 54.6935 33 54.4602 32.65L46.2602 19.6H37.0852V31.675C37.0852 32.5583 36.6518 33 35.7852 33C34.9018 33 34.4602 32.5583 34.4602 31.675V2.1C34.4602 1.21667 34.9018 0.774999 35.7852 0.774999H47.4852C50.3352 0.774999 52.4852 1.50833 53.9352 2.975C55.4018 4.44167 56.1352 6.6 56.1352 9.45V10.95C56.1352 13.4667 55.5602 15.4417 54.4102 16.875C53.2602 18.3083 51.5602 19.1833 49.3102 19.5L56.6852 31.25C57.1518 32.0167 57.0102 32.6167 56.2602 33.05ZM37.0852 16.975H47.4852C49.5852 16.975 51.1102 16.5 52.0602 15.55C53.0268 14.5833 53.5102 13.05 53.5102 10.95V9.45C53.5102 7.33333 53.0268 5.8 52.0602 4.85C51.1102 3.88333 49.5852 3.4 47.4852 3.4H37.0852V16.975ZM85.8988 33.05C85.5322 33.2667 85.1988 33.3417 84.8988 33.275C84.5988 33.2083 84.3322 33 84.0988 32.65L75.8988 19.6H66.7238V31.675C66.7238 32.5583 66.2905 33 65.4238 33C64.5405 33 64.0988 32.5583 64.0988 31.675V2.1C64.0988 1.21667 64.5405 0.774999 65.4238 0.774999H77.1238C79.9738 0.774999 82.1238 1.50833 83.5738 2.975C85.0405 4.44167 85.7738 6.6 85.7738 9.45V10.95C85.7738 13.4667 85.1988 15.4417 84.0488 16.875C82.8988 18.3083 81.1988 19.1833 78.9488 19.5L86.3238 31.25C86.7905 32.0167 86.6488 32.6167 85.8988 33.05ZM66.7238 16.975H77.1238C79.2238 16.975 80.7488 16.5 81.6988 15.55C82.6655 14.5833 83.1488 13.05 83.1488 10.95V9.45C83.1488 7.33333 82.6655 5.8 81.6988 4.85C80.7488 3.88333 79.2238 3.4 77.1238 3.4H66.7238V16.975ZM95.0625 33C94.1792 33 93.7375 32.5583 93.7375 31.675V2.1C93.7375 1.21667 94.1792 0.774999 95.0625 0.774999H113.788C114.671 0.774999 115.113 1.21667 115.113 2.1C115.113 2.96667 114.671 3.4 113.788 3.4H96.3625V15.375H107.888C108.771 15.375 109.213 15.8083 109.213 16.675C109.213 17.5583 108.771 18 107.888 18H96.3625V30.375H113.788C114.671 30.375 115.113 30.8083 115.113 31.675C115.113 32.5583 114.671 33 113.788 33H95.0625ZM130.538 33C126.922 33 124.28 32.1667 122.613 30.5C120.947 28.8333 120.113 26.1917 120.113 22.575V11.175C120.113 7.525 120.947 4.875 122.613 3.225C124.28 1.55833 126.905 0.741666 130.488 0.774999H136.538C140.155 0.774999 142.788 1.60833 144.438 3.275C146.105 4.94166 146.938 7.58333 146.938 11.2V22.575C146.938 26.1917 146.105 28.8333 144.438 30.5C142.788 32.1667 140.155 33 136.538 33H130.538ZM130.538 30.375H136.538C138.455 30.375 139.98 30.125 141.113 29.625C142.247 29.125 143.063 28.3083 143.563 27.175C144.063 26.0417 144.313 24.5083 144.313 22.575V11.2C144.313 9.28333 144.063 7.75833 143.563 6.625C143.063 5.49167 142.247 4.675 141.113 4.175C139.98 3.65833 138.455 3.4 136.538 3.4H130.488C128.572 3.38333 127.047 3.625 125.913 4.125C124.797 4.60833 123.988 5.425 123.488 6.575C122.988 7.70833 122.738 9.24167 122.738 11.175V22.575C122.738 24.5083 122.988 26.0417 123.488 27.175C123.988 28.3083 124.805 29.125 125.938 29.625C127.072 30.125 128.605 30.375 130.538 30.375Z" fill="black"/>
</svg>
